{"glyphs":{"0":{"ha":583,"x_min":50,"x_max":531,"o":"m 531 479 q 513 722 531 628 q 465 868 496 815 q 389 940 433 921 q 292 958 344 958 q 196 940 240 958 q 119 869 151 921 q 69 724 88 817 q 50 485 50 632 q 63 235 50 332 q 106 85 76 139 q 181 10 135 31 q 292 -10 226 -10 q 402 11 357 -10 q 476 87 447 32 q 517 236 504 142 q 531 479 531 331 m 338 125 q 292 58 338 58 q 251 83 260 58 q 242 136 242 108 l 243 760 q 250 866 243 836 q 292 896 257 896 q 330 867 322 896 q 338 760 338 838 l 338 125 z "},"1":{"ha":583,"x_min":158,"x_max":461,"o":"m 461 0 l 461 82 l 413 82 l 413 949 l 271 949 l 158 751 l 190 685 l 225 713 l 225 82 l 174 82 l 174 0 l 461 0 z "},"2":{"ha":583,"x_min":69,"x_max":494,"o":"m 494 701 q 477 801 494 754 q 429 882 460 847 q 358 937 399 917 q 269 957 317 957 q 190 940 226 957 q 127 894 154 924 q 85 825 100 865 q 69 739 69 785 q 95 625 69 668 q 165 582 121 582 q 224 610 201 582 q 247 686 247 639 q 230 750 247 726 q 185 774 213 774 q 163 769 174 774 q 136 754 153 765 l 136 779 q 162 847 136 819 q 225 874 188 874 q 289 833 268 874 q 310 704 310 793 q 308 627 310 658 q 300 574 306 596 q 284 535 294 551 q 258 501 274 518 l 196 435 q 151 383 171 407 q 117 328 131 358 q 97 257 104 297 q 89 158 89 217 l 89 0 l 492 0 l 492 275 l 413 275 l 413 188 l 158 188 q 186 291 163 249 q 256 365 210 333 l 315 406 q 451 538 408 468 q 494 701 494 608 z "},"3":{"ha":583,"x_min":50,"x_max":533,"o":"m 533 257 q 495 401 533 343 q 383 485 457 458 q 443 534 419 511 q 481 582 467 557 q 501 636 496 607 q 507 701 507 665 q 445 889 507 819 q 276 958 383 958 q 194 942 233 958 q 126 900 156 926 q 81 838 97 874 q 64 764 64 803 q 94 663 64 701 q 174 624 125 624 q 233 651 210 624 q 257 721 257 679 q 163 824 257 808 q 195 861 178 850 q 238 872 213 872 q 298 842 282 872 q 314 729 314 813 q 311 619 314 660 q 299 557 308 578 q 272 531 290 536 q 224 525 254 525 l 224 442 q 283 433 261 439 q 315 409 304 428 q 327 353 325 390 q 329 247 329 315 q 310 110 329 153 q 250 67 292 67 q 175 111 207 67 q 228 153 214 131 q 243 207 243 175 q 218 274 243 249 q 150 300 193 300 q 78 267 106 300 q 50 179 50 233 q 67 104 50 139 q 113 44 83 69 q 183 5 143 19 q 271 -10 224 -10 q 376 10 328 -10 q 460 66 425 31 q 514 150 494 101 q 533 257 533 199 z "},"4":{"ha":583,"x_min":50,"x_max":521,"o":"m 521 0 l 521 82 l 467 82 l 467 265 l 521 265 l 521 361 l 467 361 l 467 949 l 304 949 l 50 351 l 79 265 l 288 265 l 288 82 l 229 82 l 229 0 l 521 0 m 288 361 l 142 361 l 288 729 l 288 361 z "},"5":{"ha":583,"x_min":64,"x_max":519,"o":"m 519 313 q 503 435 519 379 q 457 533 486 492 q 388 597 428 574 q 300 619 347 619 q 233 608 264 619 q 163 567 203 596 l 163 753 l 385 753 l 385 707 l 467 707 l 467 949 l 79 949 l 79 425 l 150 417 q 168 470 160 449 q 186 504 176 492 q 208 522 196 517 q 238 526 221 526 q 308 471 288 526 q 328 281 328 415 q 308 110 328 161 q 240 60 288 60 q 204 70 219 60 q 178 106 189 81 q 241 138 222 117 q 260 199 260 158 q 235 270 260 242 q 172 299 210 299 q 94 263 125 299 q 64 171 64 226 q 81 100 64 133 q 126 43 97 67 q 193 6 154 19 q 278 -8 232 -8 q 376 15 332 -8 q 453 80 421 38 q 502 181 485 122 q 519 313 519 240 z "},"6":{"ha":583,"x_min":63,"x_max":536,"o":"m 536 319 q 522 431 536 379 q 482 522 507 483 q 422 583 457 561 q 349 604 388 604 q 305 597 325 604 q 251 571 285 590 l 251 686 q 255 784 251 746 q 267 844 258 822 q 292 875 276 867 q 331 883 307 883 q 358 878 347 883 q 386 858 369 872 q 352 818 363 839 q 342 771 342 797 q 367 703 342 731 q 428 675 392 675 q 494 705 468 675 q 521 781 521 735 q 506 851 521 818 q 463 908 490 883 q 399 945 436 932 q 318 958 361 958 q 203 933 251 958 q 123 849 154 908 q 77 690 92 790 q 63 440 63 590 q 78 220 63 307 q 123 82 93 133 q 197 10 153 31 q 300 -10 242 -10 q 398 13 354 -10 q 472 79 442 36 q 519 183 503 122 q 536 319 536 244 m 346 165 q 338 80 346 101 q 299 58 331 58 q 261 83 271 58 q 251 178 251 108 l 251 421 q 262 507 251 482 q 299 532 272 532 q 346 421 346 532 l 346 165 z "},"7":{"ha":583,"x_min":88,"x_max":493,"o":"m 493 774 l 493 949 l 88 949 l 88 671 l 161 671 l 161 753 l 400 753 q 313 639 353 700 q 241 499 272 578 q 191 317 210 419 q 168 82 172 215 l 138 82 l 138 0 l 408 0 l 408 82 l 360 82 q 359 97 360 83 q 357 136 358 111 q 356 185 356 161 q 367 430 356 332 q 397 593 378 528 q 440 699 415 658 q 493 774 465 740 z "},"8":{"ha":583,"x_min":61,"x_max":521,"o":"m 521 269 q 514 349 521 314 q 492 411 507 383 q 452 463 476 439 q 392 511 428 488 q 482 597 456 550 q 508 721 508 643 q 451 894 508 829 q 294 958 394 958 q 131 899 186 958 q 76 724 76 839 q 103 592 76 642 q 196 511 131 543 q 93 413 125 475 q 61 258 61 351 q 78 151 61 200 q 127 66 96 101 q 201 10 158 31 q 297 -10 244 -10 q 389 10 347 -10 q 460 67 431 31 q 505 155 489 103 q 521 269 521 207 m 338 603 q 328 560 338 576 q 292 543 319 543 q 253 562 263 543 q 244 603 244 581 l 244 786 q 253 869 244 849 q 292 889 263 889 q 328 869 319 889 q 338 786 338 849 l 338 603 m 338 131 q 292 65 338 65 q 244 131 244 65 l 244 381 q 254 454 244 433 q 292 475 264 475 q 328 454 318 475 q 338 381 338 433 l 338 131 z "},"9":{"ha":583,"x_min":47,"x_max":517,"o":"m 517 465 q 507 664 517 574 q 470 819 497 754 q 394 922 443 885 q 268 958 346 958 q 106 872 164 958 q 47 633 47 786 q 97 416 47 494 q 235 338 147 338 q 322 369 282 338 l 322 268 q 318 169 322 208 q 305 106 314 129 q 279 74 296 83 q 238 64 263 64 q 190 89 210 64 q 224 129 214 108 q 233 179 233 150 q 208 247 233 219 q 147 274 183 274 q 81 241 108 274 q 53 161 53 208 q 68 94 53 125 q 110 40 83 63 q 172 3 136 17 q 247 -10 207 -10 q 361 14 311 -10 q 446 92 411 38 q 499 238 481 147 q 517 465 517 329 m 322 511 q 312 435 322 457 q 276 414 301 414 q 242 439 253 414 q 232 518 232 464 l 232 789 q 242 872 232 850 q 279 894 251 894 q 314 875 306 894 q 322 797 322 856 l 322 511 z "},"\u0006":{"ha":1389,"x_min":0,"x_max":0,"o":""},"\u0005":{"ha":444,"x_min":58,"x_max":382,"o":"m 382 1094 l 306 1094 q 272 1043 290 1057 q 222 1029 254 1029 q 172 1044 190 1029 q 139 1094 153 1058 l 58 1094 q 110 980 68 1021 q 217 939 151 939 q 328 981 283 939 q 382 1094 372 1022 z "},"\b":{"ha":417,"x_min":93,"x_max":303,"o":"m 303 996 q 294 1036 303 1017 q 272 1070 286 1056 q 239 1094 257 1085 q 200 1103 221 1103 q 124 1072 154 1103 q 93 994 93 1040 q 124 922 93 951 q 200 893 156 893 q 273 923 243 893 q 303 996 303 953 m 247 994 q 233 961 247 974 q 197 949 219 949 q 162 962 175 949 q 149 997 149 975 q 162 1033 149 1019 q 196 1047 175 1047 q 231 1031 215 1047 q 247 994 247 1015 z "},"\f":{"ha":417,"x_min":49,"x_max":367,"o":"m 367 1089 l 258 1089 l 206 1010 l 153 1089 l 49 1089 l 142 936 l 260 936 l 367 1089 z "},"\r":{"ha":311,"x_min":26,"x_max":282,"o":"m 282 0 l 282 75 l 240 75 l 240 686 l 26 686 l 26 611 l 69 611 l 69 75 l 26 75 l 26 0 l 282 0 z "},"\u0019":{"ha":97,"x_min":-190,"x_max":282,"o":"m 282 949 l 189 949 l -190 0 l -96 0 l 282 949 z "},"\u001a":{"ha":568,"x_min":26,"x_max":539,"o":"m 539 0 l 539 75 l 496 75 l 496 686 l 333 686 q 215 710 253 686 q 178 785 178 735 q 202 844 178 821 q 265 868 226 868 q 308 858 293 868 q 330 833 322 849 q 342 801 338 818 q 354 769 346 785 q 378 744 363 754 q 425 735 394 735 q 482 762 458 735 q 506 826 506 789 q 490 875 506 853 q 447 914 475 897 q 380 940 418 931 q 296 949 342 949 q 124 898 179 949 q 69 743 69 847 l 69 686 l 26 686 l 26 611 l 69 611 l 69 75 l 26 75 l 26 0 l 278 0 l 278 75 l 240 75 l 240 611 l 325 611 l 325 0 l 539 0 z "},"\u001b":{"ha":568,"x_min":26,"x_max":539,"o":"m 539 0 l 539 75 l 496 75 l 496 949 l 261 949 q 200 941 233 949 q 138 913 167 933 q 89 854 108 892 q 69 757 69 817 l 69 686 l 26 686 l 26 611 l 69 611 l 69 75 l 26 75 l 26 0 l 278 0 l 278 75 l 240 75 l 240 611 l 307 611 l 307 686 q 203 717 240 686 q 165 806 165 747 q 178 838 165 826 q 210 850 190 850 q 246 836 238 850 q 260 806 254 822 q 278 776 267 790 q 325 763 290 763 l 325 0 l 539 0 z "},"\u001c":{"ha":511,"x_min":35,"x_max":490,"o":"m 490 0 l 490 326 l 368 326 l 368 82 l 267 82 l 267 503 l 414 604 l 414 699 l 267 596 l 267 865 l 314 865 l 314 949 l 35 949 l 35 865 l 82 865 l 82 468 l 35 435 l 35 342 l 82 374 l 82 82 l 35 82 l 35 0 l 490 0 z "},"\u001d":{"ha":319,"x_min":26,"x_max":292,"o":"m 292 0 l 292 75 l 249 75 l 249 542 l 283 561 l 283 651 l 249 629 l 249 949 l 26 949 l 26 872 l 78 872 l 78 528 l 33 500 l 33 413 l 78 438 l 78 75 l 35 75 l 35 0 l 292 0 z "},"\u001e":{"ha":569,"x_min":35,"x_max":529,"o":"m 529 949 l 67 949 l 67 657 l 186 657 l 186 865 l 304 865 l 35 0 l 519 0 l 519 299 l 400 299 l 400 82 l 251 82 l 529 949 m 464 1179 l 356 1179 l 303 1100 l 250 1179 l 146 1179 l 239 1026 l 357 1026 l 464 1179 z "},"\u001f":{"ha":482,"x_min":26,"x_max":453,"o":"m 453 0 l 453 269 l 344 269 l 344 75 l 222 75 l 453 629 l 453 686 l 47 686 l 47 449 l 150 449 l 150 611 l 254 611 l 26 47 l 26 0 l 453 0 m 417 897 l 308 897 l 256 818 l 203 897 l 99 897 l 192 744 l 310 744 l 417 897 z "}," ":{"ha":639,"x_min":0,"x_max":0,"o":""},"!":{"ha":399,"x_min":81,"x_max":317,"o":"m 317 826 q 283 924 317 886 q 199 961 250 961 q 113 924 146 961 q 81 826 81 886 q 83 781 81 807 q 89 732 86 754 l 163 257 l 233 257 l 310 732 q 315 778 313 750 q 317 826 317 807 m 296 107 q 267 190 296 156 q 199 224 239 224 q 131 190 158 224 q 103 107 103 156 q 131 24 103 58 q 199 -10 158 -10 q 267 24 239 -10 q 296 107 296 58 z "},"\"":{"ha":392,"x_min":38,"x_max":353,"o":"m 353 949 l 214 949 l 249 567 l 318 567 l 353 949 m 178 949 l 38 949 l 74 567 l 142 567 l 178 949 z "},"#":{"ha":644,"x_min":33,"x_max":607,"o":"m 607 707 l 506 707 l 547 949 l 442 949 l 401 707 l 317 707 l 357 949 l 251 949 l 211 707 l 110 707 l 94 607 l 196 607 l 150 340 l 49 340 l 33 240 l 135 240 l 94 0 l 200 0 l 240 240 l 325 240 l 283 0 l 389 0 l 431 240 l 532 240 l 547 340 l 446 340 l 490 607 l 592 607 l 607 707 m 385 607 l 340 340 l 256 340 l 301 607 l 385 607 z "},"$":{"ha":583,"x_min":49,"x_max":533,"o":"m 533 239 q 481 431 533 339 q 308 593 429 522 l 308 881 q 340 869 329 875 q 368 844 350 863 q 332 813 342 829 q 322 771 322 797 q 345 701 322 728 q 407 675 368 675 q 474 704 447 675 q 501 775 501 733 q 488 839 501 808 q 448 894 474 869 q 387 935 422 918 q 308 957 351 951 l 308 981 l 258 981 l 258 957 q 102 878 156 940 q 49 711 49 815 q 97 538 49 615 q 258 381 146 460 l 258 58 q 200 78 218 69 q 164 108 182 88 q 253 197 253 113 q 227 271 253 242 q 161 300 201 300 q 90 266 118 300 q 63 181 63 232 q 77 106 63 140 q 117 46 92 72 q 179 3 143 19 q 258 -17 215 -12 l 258 -126 l 308 -126 l 308 -17 q 474 76 415 8 q 533 239 533 143 m 258 633 q 201 699 218 668 q 185 772 185 731 q 258 882 185 857 l 258 633 m 389 188 q 308 63 389 101 l 308 343 q 372 261 356 294 q 389 188 389 228 z "},"%":{"ha":810,"x_min":46,"x_max":760,"o":"m 760 286 q 752 421 760 365 q 727 510 744 476 q 681 560 710 544 q 613 575 653 575 q 544 560 572 575 q 500 510 517 544 q 476 421 483 476 q 468 286 468 365 q 476 150 468 206 q 500 60 483 94 q 544 11 517 26 q 613 -4 572 -4 q 681 11 653 -4 q 727 60 710 26 q 752 150 744 94 q 760 286 760 206 m 640 949 l 546 949 l 167 0 l 261 0 l 640 949 m 339 663 q 331 797 339 742 q 306 888 324 853 q 261 938 289 922 q 193 953 233 953 q 124 938 153 953 q 78 888 96 922 q 53 797 61 853 q 46 663 46 742 q 53 526 46 582 q 78 437 61 471 q 124 388 96 403 q 193 372 153 372 q 261 388 233 372 q 306 437 289 403 q 331 526 324 471 q 339 663 339 582 m 638 83 q 613 42 638 42 q 594 54 599 42 q 589 103 589 67 l 589 497 q 613 540 589 540 q 633 527 628 540 q 638 478 638 514 l 638 83 m 217 461 q 193 418 217 418 q 172 431 178 418 q 167 479 167 443 l 167 874 q 193 917 167 917 q 212 903 207 917 q 217 854 217 890 l 217 461 z "},"&":{"ha":628,"x_min":49,"x_max":593,"o":"m 593 0 l 593 82 l 551 82 l 517 165 q 567 293 551 235 q 582 418 582 351 q 557 565 582 511 q 488 618 532 618 q 441 598 458 618 q 424 543 424 578 q 442 479 424 507 q 485 451 461 451 q 497 453 490 451 q 504 456 504 456 q 510 432 504 456 q 517 381 517 408 q 509 311 517 344 q 486 232 501 278 q 426 358 454 294 q 379 471 399 421 q 349 553 360 521 q 338 585 338 585 q 406 677 385 631 q 426 782 426 724 q 385 908 426 858 q 279 957 343 957 q 220 944 247 957 q 173 908 193 931 q 142 853 153 885 q 131 783 131 821 q 146 672 131 731 q 196 536 161 613 q 49 247 49 422 q 65 142 49 190 q 110 60 81 94 q 179 6 139 25 q 267 -14 219 -14 q 343 -3 311 -14 q 413 36 375 8 l 431 0 l 593 0 m 367 779 q 355 708 367 736 q 313 654 343 681 q 278 753 289 714 q 267 811 267 792 q 280 853 267 836 q 313 869 293 869 q 352 846 338 869 q 367 779 367 822 m 376 113 q 338 99 351 99 q 289 122 314 99 q 244 181 264 144 q 210 260 224 217 q 197 346 197 304 q 203 400 197 378 q 229 449 210 422 q 260 363 244 403 q 292 283 275 322 q 330 203 310 244 q 376 113 350 163 z "},"'":{"ha":199,"x_min":28,"x_max":167,"o":"m 167 949 l 28 949 l 64 567 l 132 567 l 167 949 z "},"(":{"ha":333,"x_min":85,"x_max":303,"o":"m 303 -172 q 247 -42 269 -106 q 209 88 224 22 q 188 222 194 153 q 182 369 182 290 q 188 518 182 449 q 209 652 194 588 q 247 781 224 717 q 303 911 269 844 l 226 943 q 119 651 154 792 q 85 369 85 511 q 119 88 85 228 q 226 -203 154 -53 l 303 -172 z "},")":{"ha":333,"x_min":28,"x_max":246,"o":"m 246 369 q 211 651 246 511 q 104 943 176 792 l 28 911 q 84 781 61 844 q 122 652 107 717 q 142 518 136 588 q 149 369 149 449 q 142 222 149 290 q 122 88 136 153 q 84 -42 107 22 q 28 -172 61 -106 l 104 -203 q 211 88 176 -53 q 246 369 246 228 z "},"*":{"ha":361,"x_min":61,"x_max":299,"o":"m 299 775 q 246 813 299 813 q 208 825 208 813 q 247 836 208 836 q 299 874 299 836 q 288 899 299 889 q 264 908 278 908 q 242 899 251 908 q 226 878 233 890 q 211 858 218 867 q 199 849 204 849 q 192 858 192 849 q 203 886 192 867 q 214 924 214 906 q 204 949 214 939 q 181 958 194 958 q 156 949 165 958 q 146 924 146 939 q 157 885 146 906 q 168 858 168 865 q 161 849 168 849 q 149 858 156 849 q 135 878 143 867 q 117 899 126 890 q 96 908 108 908 q 72 899 82 908 q 63 874 63 889 q 114 836 63 836 q 151 825 151 836 q 113 813 151 813 q 63 776 65 813 q 72 751 61 763 q 96 740 82 740 q 117 749 108 740 q 134 770 126 758 q 148 791 142 782 q 161 800 154 800 q 168 792 168 800 q 157 765 168 783 q 146 725 146 746 q 156 702 146 713 q 181 692 165 692 q 204 702 194 692 q 214 725 214 713 q 203 763 214 742 q 192 792 192 783 q 199 800 192 800 q 212 791 206 800 q 226 770 218 782 q 242 749 233 758 q 264 740 251 740 q 288 750 278 740 q 299 775 299 760 z "},"+":{"ha":583,"x_min":75,"x_max":506,"o":"m 506 422 l 506 526 l 346 526 l 346 692 l 235 692 l 235 526 l 75 526 l 75 422 l 235 422 l 235 256 l 346 256 l 346 422 l 506 422 z "},",":{"ha":314,"x_min":46,"x_max":244,"o":"m 244 72 q 215 173 244 135 q 138 211 186 211 q 72 180 99 211 q 46 100 46 149 q 70 27 46 56 q 133 -1 94 -1 q 152 0 142 -1 q 163 1 163 1 q 142 -33 151 -19 q 125 -58 133 -47 q 106 -77 117 -68 q 82 -97 96 -86 l 117 -167 q 212 -64 179 -125 q 244 72 244 -3 z "},"-":{"ha":279,"x_min":14,"x_max":267,"o":"m 267 265 l 267 418 l 14 418 l 14 265 l 267 265 z "},".":{"ha":326,"x_min":67,"x_max":258,"o":"m 258 107 q 230 190 258 156 q 161 224 201 224 q 94 190 122 224 q 67 107 67 156 q 94 24 67 58 q 161 -10 122 -10 q 230 24 201 -10 q 258 107 258 58 z "},"/":{"ha":631,"x_min":28,"x_max":599,"o":"m 599 949 l 515 949 l 28 0 l 113 0 l 599 949 z "},":":{"ha":326,"x_min":67,"x_max":258,"o":"m 258 585 q 230 667 258 633 q 161 701 201 701 q 94 667 122 701 q 67 585 67 633 q 94 502 67 536 q 161 468 122 468 q 230 502 201 468 q 258 585 258 536 m 258 107 q 230 190 258 156 q 161 224 201 224 q 94 190 122 224 q 67 107 67 156 q 94 24 67 58 q 161 -10 122 -10 q 230 24 201 -10 q 258 107 258 58 z "},";":{"ha":314,"x_min":46,"x_max":244,"o":"m 242 585 q 213 667 242 633 q 144 701 185 701 q 77 667 106 701 q 49 585 49 633 q 77 502 49 536 q 144 468 106 468 q 213 502 185 468 q 242 585 242 536 m 244 72 q 215 173 244 135 q 138 211 186 211 q 72 180 99 211 q 46 100 46 149 q 70 27 46 56 q 133 -1 94 -1 q 145 -1 139 -1 q 163 1 151 0 q 142 -33 151 -19 q 125 -58 133 -47 q 106 -77 117 -68 q 82 -97 96 -86 l 117 -167 q 212 -64 179 -125 q 244 72 244 -3 z "},"<":{"ha":706,"x_min":56,"x_max":649,"o":"m 649 103 l 649 326 l 282 578 l 649 811 l 649 897 l 56 522 l 56 508 l 649 103 z "},"=":{"ha":583,"x_min":75,"x_max":506,"o":"m 506 540 l 506 639 l 75 639 l 75 540 l 506 540 m 506 308 l 506 407 l 75 407 l 75 308 l 506 308 z "},">":{"ha":706,"x_min":56,"x_max":649,"o":"m 649 478 l 649 489 l 56 897 l 56 672 l 422 422 l 56 186 l 56 103 l 649 478 z "},"?":{"ha":560,"x_min":42,"x_max":478,"o":"m 478 729 q 460 823 478 781 q 412 897 443 865 q 338 945 381 928 q 244 963 296 963 q 165 947 201 963 q 101 905 128 932 q 58 842 74 878 q 42 765 42 807 q 70 666 42 703 q 147 629 99 629 q 218 658 192 629 q 244 735 244 688 q 224 799 244 774 q 169 824 203 824 q 145 819 156 824 q 135 814 135 814 q 161 858 142 843 q 207 874 181 874 q 273 831 249 874 q 297 713 297 789 q 274 604 297 650 q 224 510 251 558 q 174 404 197 463 q 151 260 151 346 l 232 260 q 256 351 236 313 q 303 422 276 390 q 361 483 331 454 q 417 547 392 513 q 460 625 443 582 q 478 729 478 668 m 296 107 q 267 190 296 156 q 199 224 239 224 q 131 190 158 224 q 103 107 103 156 q 131 24 103 58 q 199 -10 158 -10 q 267 24 239 -10 q 296 107 296 58 z "},"@":{"ha":618,"x_min":46,"x_max":568,"o":"m 568 189 l 568 706 q 550 813 568 764 q 500 896 532 861 q 423 949 468 931 q 322 968 378 968 q 192 942 244 968 q 106 858 139 917 q 60 700 74 799 q 46 456 46 601 q 63 222 46 314 q 115 75 79 129 q 205 0 150 21 q 338 -21 260 -21 q 553 97 503 -21 l 453 122 q 338 57 417 57 q 256 74 288 57 q 206 136 224 90 q 181 264 188 182 q 174 476 174 346 q 181 686 174 606 q 206 813 188 767 q 253 874 224 858 q 326 890 282 890 q 435 838 404 890 q 465 664 465 785 q 427 705 446 693 q 383 717 408 717 q 296 649 324 717 q 268 431 268 582 q 294 238 268 299 q 378 178 321 178 q 465 243 425 178 l 465 189 l 568 189 m 465 460 q 463 369 465 406 q 456 313 461 333 q 441 283 450 292 q 419 274 432 274 q 381 304 390 274 q 371 422 371 335 q 382 578 371 535 q 421 622 393 622 q 456 587 446 622 q 465 460 465 551 z "},"A":{"ha":567,"x_min":10,"x_max":556,"o":"m 556 0 l 556 82 l 510 82 l 376 949 l 150 949 l 49 82 l 10 82 l 10 0 l 179 0 l 179 82 l 126 82 l 150 285 l 292 285 l 324 82 l 271 82 l 271 0 l 556 0 m 278 365 l 161 365 l 217 808 l 278 365 z "},"B":{"ha":613,"x_min":35,"x_max":571,"o":"m 571 275 q 537 418 571 364 q 428 499 503 472 q 519 576 490 526 q 549 708 549 626 q 531 824 549 778 q 475 897 513 869 q 381 937 438 925 q 247 949 324 949 l 35 949 l 35 865 l 82 865 l 82 82 l 35 82 l 35 0 l 225 0 q 390 13 324 0 q 496 58 456 26 q 553 143 536 90 q 571 275 571 196 m 365 704 q 345 569 365 608 q 275 531 325 531 q 269 531 272 531 q 267 532 267 532 l 267 865 l 288 865 q 347 827 328 865 q 365 704 365 789 m 375 276 q 354 126 375 169 q 282 82 333 82 l 267 82 l 267 460 q 272 460 267 460 q 279 461 276 461 q 353 418 331 461 q 375 276 375 375 z "},"C":{"ha":535,"x_min":39,"x_max":492,"o":"m 492 294 q 491 319 492 301 q 490 336 490 336 l 422 336 q 393 135 418 194 q 315 76 368 76 q 284 83 299 76 q 259 110 269 89 q 243 176 249 132 q 238 294 238 219 l 238 697 q 241 793 238 757 q 251 849 244 829 q 271 874 258 868 q 301 881 283 881 q 331 876 318 881 q 352 855 343 871 q 366 810 361 839 q 371 733 371 781 l 371 635 l 490 635 l 490 949 l 426 949 l 403 901 q 344 948 371 935 q 279 961 317 961 q 97 844 156 961 q 39 478 39 726 q 101 110 39 233 q 288 -12 164 -12 q 372 9 335 -12 q 436 71 410 31 q 477 168 463 111 q 492 294 492 225 z "},"D":{"ha":622,"x_min":35,"x_max":579,"o":"m 579 500 q 560 706 579 621 q 506 846 542 792 q 415 924 469 900 q 290 949 361 949 l 35 949 l 35 865 l 82 865 l 82 82 l 35 82 l 35 0 l 279 0 q 407 24 351 0 q 501 106 463 49 q 559 260 539 164 q 579 500 579 356 m 382 499 q 379 278 382 360 q 367 152 376 196 q 339 95 357 108 q 292 82 321 82 l 267 82 l 267 865 l 278 865 q 338 849 317 865 q 369 790 360 832 q 381 678 379 749 q 382 499 382 607 z "},"E":{"ha":540,"x_min":35,"x_max":499,"o":"m 499 0 l 499 279 l 376 279 l 376 82 l 267 82 l 267 443 l 321 443 l 321 349 l 417 349 l 417 615 l 321 615 l 321 524 l 267 524 l 267 865 l 376 865 l 376 688 l 499 688 l 499 949 l 35 949 l 35 865 l 82 865 l 82 82 l 35 82 l 35 0 l 499 0 z "},"F":{"ha":529,"x_min":35,"x_max":497,"o":"m 497 682 l 497 949 l 35 949 l 35 865 l 82 865 l 82 82 l 35 82 l 35 0 l 314 0 l 314 82 l 267 81 l 267 435 l 328 435 l 328 343 l 415 343 l 415 608 l 328 608 l 328 521 l 267 521 l 267 865 l 375 865 l 375 682 l 497 682 z "},"G":{"ha":618,"x_min":39,"x_max":576,"o":"m 576 388 l 576 465 l 290 465 l 290 388 l 343 388 l 343 201 q 333 108 343 135 q 294 82 322 82 q 267 89 278 82 q 249 113 256 96 q 240 159 243 129 q 238 235 238 189 l 238 694 q 255 841 238 799 q 314 883 272 883 q 351 873 336 883 q 374 847 365 863 q 387 811 383 831 q 390 774 390 792 l 390 658 l 519 658 l 519 949 l 456 949 l 438 890 q 362 945 397 929 q 283 961 326 961 q 181 927 226 961 q 104 830 136 893 q 56 676 72 767 q 39 471 39 585 q 104 112 39 235 q 294 -11 169 -11 q 374 6 339 -11 q 446 65 408 24 l 464 0 l 519 0 l 519 388 l 576 388 z "},"H":{"ha":646,"x_min":35,"x_max":606,"o":"m 606 0 l 606 82 l 560 82 l 560 865 l 606 865 l 606 949 l 338 949 l 338 865 l 374 865 l 374 539 l 267 539 l 267 865 l 306 865 l 306 949 l 35 949 l 35 865 l 82 865 l 82 82 l 35 82 l 35 0 l 306 0 l 306 82 l 267 82 l 267 457 l 374 457 l 374 82 l 338 82 l 338 0 l 606 0 z "},"I":{"ha":353,"x_min":35,"x_max":314,"o":"m 314 0 l 314 82 l 267 82 l 267 865 l 314 865 l 314 949 l 35 949 l 35 865 l 82 865 l 82 82 l 35 82 l 35 0 l 314 0 z "},"J":{"ha":460,"x_min":14,"x_max":450,"o":"m 450 865 l 450 949 l 164 949 l 164 865 l 218 865 l 218 244 q 217 179 218 211 q 208 122 215 147 q 186 82 200 97 q 147 67 172 67 q 99 93 108 67 l 108 93 q 158 122 138 93 q 179 194 179 151 q 158 267 179 240 q 101 294 138 294 q 38 260 61 294 q 14 169 14 226 q 28 97 14 131 q 67 40 42 64 q 125 3 92 17 q 199 -11 158 -11 q 404 282 404 -11 l 404 865 l 450 865 z "},"K":{"ha":633,"x_min":35,"x_max":615,"o":"m 615 0 l 615 82 l 572 82 l 393 646 l 532 865 l 583 865 l 583 949 l 392 949 l 392 865 l 449 865 l 267 567 l 267 865 l 314 865 l 314 949 l 35 949 l 35 865 l 82 865 l 82 82 l 35 82 l 35 0 l 306 0 l 306 82 l 267 82 l 267 457 l 371 82 l 343 82 l 343 0 l 615 0 z "},"L":{"ha":511,"x_min":35,"x_max":489,"o":"m 489 0 l 489 326 l 367 326 l 367 82 l 267 82 l 267 865 l 314 865 l 314 949 l 35 949 l 35 865 l 82 865 l 82 82 l 35 82 l 35 0 l 489 0 z "},"M":{"ha":768,"x_min":35,"x_max":728,"o":"m 728 0 l 728 82 l 682 82 l 682 865 l 728 865 l 728 949 l 450 949 l 382 490 l 318 949 l 35 949 l 35 865 l 82 865 l 82 82 l 35 82 l 35 0 l 213 0 l 213 82 l 164 82 l 164 689 l 265 0 l 388 0 l 496 676 l 496 82 l 450 82 l 450 0 l 728 0 z "},"N":{"ha":596,"x_min":35,"x_max":558,"o":"m 558 865 l 558 949 l 386 949 l 386 865 l 433 865 l 433 339 l 258 949 l 35 949 l 35 865 l 82 865 l 82 82 l 35 82 l 35 0 l 203 0 l 203 82 l 158 82 l 158 643 l 347 0 l 510 0 l 510 865 l 558 865 z "},"O":{"ha":576,"x_min":32,"x_max":542,"o":"m 542 475 q 531 643 542 557 q 492 799 521 729 q 415 915 464 869 q 288 960 365 960 q 182 935 229 960 q 101 852 135 910 q 50 702 68 794 q 32 475 32 610 q 288 -11 32 -11 q 392 15 346 -11 q 472 98 439 40 q 524 249 506 156 q 542 475 542 342 m 344 201 q 332 96 344 125 q 288 67 319 67 q 242 96 254 67 q 229 201 229 125 l 229 746 q 242 853 229 824 q 288 882 254 882 q 332 853 319 882 q 344 746 344 824 l 344 201 z "},"P":{"ha":588,"x_min":35,"x_max":557,"o":"m 557 679 q 539 806 557 754 q 488 890 521 858 q 410 935 456 921 q 311 949 365 949 l 35 949 l 35 865 l 82 865 l 82 82 l 35 82 l 35 0 l 326 0 l 326 82 l 267 82 l 267 404 l 313 404 q 428 421 381 404 q 503 472 475 438 q 544 558 532 506 q 557 679 557 610 m 369 608 q 366 544 369 568 q 352 506 363 519 q 321 487 342 492 q 267 482 300 482 l 267 865 q 349 845 328 865 q 369 764 369 825 l 369 608 z "},"Q":{"ha":576,"x_min":32,"x_max":542,"o":"m 542 475 q 531 651 542 564 q 492 806 521 738 q 415 917 464 875 q 288 960 365 960 q 182 933 229 960 q 101 849 135 907 q 50 698 68 790 q 32 475 32 606 q 94 113 32 232 q 283 -11 156 -7 l 349 -132 l 428 -76 l 378 10 q 502 165 463 53 q 542 475 542 276 m 344 201 q 338 115 344 136 q 331 94 331 94 l 297 154 l 236 113 q 232 138 235 115 q 229 201 229 160 l 229 746 q 242 853 229 824 q 288 882 254 882 q 332 853 319 882 q 344 746 344 824 l 344 201 z "},"R":{"ha":618,"x_min":35,"x_max":596,"o":"m 596 0 l 596 82 l 551 82 l 551 260 q 547 349 551 314 q 528 409 542 385 q 488 449 514 433 q 422 481 463 465 q 527 552 497 506 q 557 690 557 599 q 543 815 557 765 q 496 895 529 865 q 407 937 463 925 q 267 949 351 949 l 35 949 l 35 865 l 82 865 l 82 82 l 35 82 l 35 0 l 319 0 l 319 82 l 267 82 l 267 431 l 281 431 q 323 425 307 431 q 349 406 339 419 q 362 367 358 392 q 365 303 365 342 l 365 0 l 596 0 m 365 596 q 360 549 365 567 q 344 523 356 532 q 313 511 332 514 q 267 508 294 508 l 267 865 q 319 862 300 865 q 349 848 339 858 q 363 817 360 838 q 365 764 365 797 l 365 596 z "},"S":{"ha":528,"x_min":54,"x_max":489,"o":"m 489 247 q 468 369 489 313 q 416 474 447 425 q 349 567 385 524 q 281 652 313 611 q 229 733 250 693 q 208 813 208 772 q 224 859 208 840 q 263 878 239 878 q 324 843 303 878 q 344 743 344 808 l 344 676 l 461 676 l 461 949 l 396 949 l 376 897 q 310 946 340 932 q 243 960 281 960 q 168 941 203 960 q 108 890 133 922 q 69 815 83 858 q 54 719 54 771 q 75 600 54 656 q 127 494 96 544 q 195 400 158 444 q 263 313 232 356 q 315 230 294 271 q 336 147 336 189 q 319 90 336 113 q 271 68 301 68 q 176 256 176 68 l 176 311 l 60 311 l 60 0 l 138 0 l 164 43 q 215 0 192 11 q 275 -11 239 -11 q 362 8 322 -11 q 429 61 401 26 q 473 143 457 96 q 489 247 489 190 z "},"T":{"ha":536,"x_min":14,"x_max":519,"o":"m 519 618 l 519 949 l 14 949 l 14 618 l 117 618 l 117 865 l 174 865 l 174 82 l 126 82 l 126 0 l 406 0 l 406 82 l 358 82 l 358 865 l 417 865 l 417 618 l 519 618 z "},"U":{"ha":596,"x_min":26,"x_max":568,"o":"m 568 865 l 568 949 l 383 949 l 383 865 l 442 865 l 442 289 q 438 185 442 225 q 426 124 435 146 q 399 94 417 101 q 354 86 382 86 q 306 94 325 86 q 277 124 288 103 q 263 184 267 146 q 258 281 258 222 l 258 865 l 315 865 l 315 949 l 26 949 l 26 865 l 74 865 l 74 281 q 131 59 74 129 q 310 -11 188 -11 q 408 5 368 -11 q 474 57 449 21 q 511 151 500 93 q 522 294 522 210 l 522 865 l 568 865 z "},"V":{"ha":554,"x_min":10,"x_max":543,"o":"m 543 865 l 543 949 l 385 949 l 385 865 l 431 865 l 342 269 l 250 865 l 294 865 l 294 949 l 10 949 l 10 865 l 51 865 l 210 0 l 358 0 l 510 865 l 543 865 z "},"W":{"ha":847,"x_min":18,"x_max":826,"o":"m 826 865 l 826 949 l 665 949 l 665 865 l 706 865 l 636 360 l 564 949 l 396 949 l 318 371 l 257 865 l 292 865 l 292 949 l 18 949 l 18 865 l 63 865 l 189 0 l 349 0 l 428 519 l 497 0 l 665 0 l 793 865 l 826 865 z "},"X":{"ha":581,"x_min":18,"x_max":560,"o":"m 560 0 l 560 82 l 515 82 l 361 550 l 500 865 l 538 865 l 538 949 l 372 949 l 372 865 l 415 865 l 324 654 l 256 865 l 304 865 l 304 949 l 18 949 l 18 865 l 63 865 l 208 432 l 50 82 l 18 82 l 18 0 l 189 0 l 189 82 l 144 82 l 243 325 l 324 82 l 279 82 l 279 0 l 560 0 z "},"Y":{"ha":553,"x_min":10,"x_max":542,"o":"m 542 865 l 542 949 l 374 949 l 374 865 l 421 865 l 335 513 l 251 865 l 296 865 l 296 949 l 10 949 l 10 865 l 50 865 l 193 350 l 193 82 l 142 82 l 142 0 l 431 0 l 431 82 l 374 82 l 374 371 l 499 865 l 542 865 z "},"Z":{"ha":569,"x_min":35,"x_max":529,"o":"m 529 949 l 67 949 l 67 657 l 186 657 l 186 865 l 304 865 l 35 0 l 519 0 l 519 299 l 400 299 l 400 82 l 251 82 l 529 949 z "},"[":{"ha":479,"x_min":122,"x_max":411,"o":"m 411 -218 l 411 -168 q 349 -163 374 -168 q 309 -143 324 -158 q 288 -100 294 -128 q 282 -28 282 -72 l 282 768 q 289 843 282 815 q 312 885 296 871 q 352 903 328 899 q 411 907 376 907 l 411 957 l 122 957 l 122 -218 l 411 -218 z "},"\\":{"ha":631,"x_min":28,"x_max":707,"o":"m 707 -208 l 113 949 l 28 949 l 622 -208 l 707 -208 z "},"]":{"ha":479,"x_min":67,"x_max":354,"o":"m 354 -218 l 354 957 l 67 957 l 67 907 q 128 901 103 907 q 167 881 153 896 q 188 839 182 867 q 194 768 194 811 l 194 -28 q 188 -105 194 -76 q 165 -147 181 -133 q 124 -165 149 -161 q 67 -168 100 -168 l 67 -218 l 354 -218 z "},"^":{"ha":694,"x_min":107,"x_max":618,"o":"m 618 536 l 374 950 l 351 950 l 107 536 l 181 536 l 363 774 l 544 536 l 618 536 z "},"_":{"ha":556,"x_min":0,"x_max":556,"o":"m 556 -194 l 556 -97 l 0 -97 l 0 -194 l 556 -194 z "},"`":{"ha":458,"x_min":83,"x_max":347,"o":"m 347 922 l 249 1074 l 83 1074 l 257 922 l 347 922 z "},"a":{"ha":550,"x_min":32,"x_max":526,"o":"m 526 43 l 500 114 q 464 85 479 85 q 449 111 449 85 l 449 483 q 254 703 449 703 q 100 660 157 703 q 43 547 43 618 q 70 474 43 504 q 135 444 97 444 q 196 472 171 444 q 221 535 221 499 q 212 575 221 558 q 176 614 203 592 q 197 628 188 625 q 219 632 206 632 q 268 613 254 632 q 282 544 282 593 l 282 388 l 215 388 q 78 337 125 388 q 32 186 32 286 q 76 40 32 93 q 194 -14 119 -14 q 256 -1 233 -14 q 303 43 279 11 q 354 -2 332 10 q 410 -14 376 -14 q 471 -1 446 -14 q 526 43 496 11 m 282 167 q 243 79 282 79 q 196 190 196 79 q 199 256 196 231 q 209 294 201 281 q 231 313 217 308 q 267 318 244 318 l 282 318 l 282 167 z "},"b":{"ha":543,"x_min":26,"x_max":507,"o":"m 507 350 q 460 609 507 515 q 331 703 414 703 q 290 695 307 703 q 240 665 272 688 l 240 949 l 26 949 l 26 872 l 69 872 l 69 75 l 26 75 l 26 0 l 222 0 l 231 46 q 336 -14 274 -14 q 507 350 507 -14 m 328 238 q 326 163 328 193 q 318 114 324 132 q 303 88 313 96 q 281 81 294 81 q 260 87 268 81 q 249 109 253 93 q 242 153 244 125 q 240 226 240 182 l 240 496 q 249 587 240 563 q 281 611 257 611 q 317 586 306 611 q 328 503 328 561 l 328 238 z "},"c":{"ha":479,"x_min":32,"x_max":443,"o":"m 443 221 l 368 235 q 340 120 358 151 q 282 89 322 89 q 247 100 261 89 q 224 138 232 111 q 212 210 215 165 q 208 324 208 256 q 212 471 208 413 q 224 564 215 529 q 246 613 232 599 q 281 626 260 626 q 332 581 319 626 q 258 496 258 576 q 285 428 258 456 q 349 401 313 401 q 417 433 392 401 q 442 517 442 464 q 428 590 442 556 q 389 649 414 624 q 331 688 364 674 q 258 701 297 701 q 91 610 150 701 q 32 350 32 518 q 85 79 32 172 q 238 -14 138 -14 q 374 42 322 -14 q 443 221 426 97 z "},"d":{"ha":547,"x_min":32,"x_max":518,"o":"m 518 0 l 518 75 l 475 75 l 475 949 l 260 949 l 260 872 l 304 872 l 304 660 q 253 693 275 683 q 200 703 231 703 q 76 604 121 703 q 32 326 32 506 q 78 72 32 158 q 217 -14 125 -14 q 263 -3 243 -14 q 313 35 283 7 l 319 0 l 518 0 m 304 242 q 302 164 304 194 q 295 115 300 133 q 282 90 290 97 q 260 83 274 83 q 238 93 247 83 q 222 133 228 103 q 212 216 215 163 q 208 357 208 269 q 212 479 208 432 q 222 553 215 526 q 238 591 228 581 q 261 601 249 601 q 294 572 285 601 q 304 476 304 543 l 304 242 z "},"e":{"ha":507,"x_min":32,"x_max":471,"o":"m 471 214 l 396 225 q 358 116 383 150 q 289 82 332 82 q 225 118 243 82 q 207 247 207 154 q 208 278 207 258 q 208 310 208 297 q 208 325 208 324 l 464 325 q 465 342 464 325 q 465 364 465 358 q 409 615 465 528 q 247 703 353 703 q 88 613 143 703 q 32 349 32 522 q 92 83 32 179 q 256 -12 151 -12 q 401 47 343 -12 q 471 214 460 107 m 306 393 l 208 393 l 208 501 q 221 600 208 569 q 261 631 233 631 q 306 519 306 631 l 306 393 z "},"f":{"ha":333,"x_min":26,"x_max":324,"o":"m 324 847 q 292 918 324 889 q 213 947 260 947 q 106 894 143 947 q 69 743 69 842 l 69 686 l 26 686 l 26 611 l 69 611 l 69 75 l 26 75 l 26 0 l 307 0 l 307 75 l 240 75 l 240 611 l 307 611 l 307 686 q 199 719 232 686 q 167 833 167 753 q 243 761 186 761 q 301 786 278 761 q 324 847 324 811 z "},"g":{"ha":529,"x_min":32,"x_max":499,"o":"m 499 761 q 477 819 499 794 q 424 843 456 843 q 367 820 390 843 q 344 765 344 797 q 407 693 344 704 q 401 672 404 678 q 390 654 399 665 q 326 690 358 678 q 257 701 294 701 q 169 681 208 701 q 103 625 131 661 q 61 537 76 589 q 46 421 46 485 q 65 294 46 342 q 126 210 83 246 q 60 129 83 171 q 38 46 38 88 q 46 4 38 22 q 74 -35 54 -14 q 41 -63 50 -49 q 32 -100 32 -78 q 85 -188 32 -157 q 235 -219 139 -219 q 496 -42 496 -219 q 453 64 496 25 q 333 103 410 103 q 301 101 318 103 q 267 98 283 100 q 238 94 251 96 q 217 93 225 93 q 169 105 188 93 q 151 136 151 117 q 155 153 151 144 q 169 176 158 163 q 214 158 193 164 q 263 153 235 153 q 417 226 361 153 q 472 428 472 299 q 470 481 472 457 q 463 526 468 504 q 449 567 458 547 q 428 611 440 588 q 483 690 468 657 q 499 761 499 724 m 303 296 q 294 241 303 256 q 260 226 285 226 q 225 244 232 226 q 218 315 218 263 l 218 529 q 226 607 218 588 q 260 626 235 626 q 294 610 286 626 q 303 540 303 593 l 303 296 m 393 -99 q 258 -144 393 -144 q 152 -129 190 -144 q 114 -86 114 -114 q 122 -68 114 -76 q 129 -60 129 -60 q 145 -63 129 -60 q 193 -67 161 -67 q 255 -65 233 -67 q 300 -64 276 -64 q 372 -72 350 -64 q 393 -99 393 -79 z "},"h":{"ha":561,"x_min":26,"x_max":539,"o":"m 539 0 l 539 75 l 496 75 l 496 531 q 483 611 496 578 q 450 665 469 644 q 408 694 431 685 q 365 703 385 703 q 305 688 335 703 q 240 642 275 672 l 240 949 l 26 949 l 26 872 l 69 872 l 69 75 l 26 75 l 26 0 l 282 0 l 282 75 l 240 75 l 240 476 q 292 593 240 593 q 318 572 311 593 q 325 489 325 551 l 325 0 l 539 0 z "},"i":{"ha":311,"x_min":26,"x_max":282,"o":"m 254 835 q 223 911 254 879 q 147 943 192 943 q 106 935 125 943 q 72 912 86 926 q 49 877 57 897 q 40 835 40 857 q 49 792 40 813 q 72 758 57 772 q 106 735 86 743 q 147 726 125 726 q 223 758 192 726 q 254 835 254 790 m 282 0 l 282 75 l 240 75 l 240 686 l 26 686 l 26 611 l 69 611 l 69 75 l 26 75 l 26 0 l 282 0 z "},"j":{"ha":331,"x_min":-115,"x_max":263,"o":"m 263 835 q 231 911 263 879 q 156 943 200 943 q 114 935 133 943 q 80 912 94 926 q 57 877 65 897 q 49 835 49 857 q 57 792 49 813 q 80 758 65 772 q 114 735 94 743 q 156 726 133 726 q 231 758 200 726 q 263 835 263 790 m 261 10 l 261 686 l 43 686 l 43 611 l 86 611 l 86 -4 q 83 -104 86 -68 q 74 -158 79 -140 q 60 -178 68 -175 q 44 -182 53 -182 q 31 -169 31 -182 q 45 -143 31 -160 q 60 -99 60 -126 q 35 -38 60 -62 q -26 -14 10 -14 q -90 -41 -65 -14 q -115 -108 -115 -68 q -101 -160 -115 -136 q -64 -201 -87 -183 q -7 -229 -40 -219 q 64 -239 26 -239 q 215 -181 169 -239 q 261 10 261 -124 z "},"k":{"ha":553,"x_min":26,"x_max":536,"o":"m 536 0 l 536 75 l 508 75 l 367 481 l 463 611 l 508 611 l 508 686 l 322 686 l 322 611 l 376 611 l 240 419 l 240 949 l 26 949 l 26 872 l 69 872 l 69 75 l 26 75 l 26 0 l 279 0 l 279 75 l 240 75 l 240 326 l 350 0 l 536 0 z "},"l":{"ha":319,"x_min":26,"x_max":292,"o":"m 292 0 l 292 75 l 249 75 l 249 949 l 26 949 l 26 872 l 78 872 l 78 75 l 35 75 l 35 0 l 292 0 z "},"m":{"ha":817,"x_min":26,"x_max":794,"o":"m 794 0 l 794 75 l 753 75 l 753 497 q 742 596 753 557 q 712 658 731 635 q 668 692 693 682 q 617 701 643 701 q 555 687 585 701 q 476 632 525 672 q 424 685 453 668 q 358 701 394 701 q 303 688 329 701 q 240 646 276 675 l 240 686 l 26 686 l 26 611 l 69 611 l 69 75 l 26 75 l 26 0 l 282 0 l 282 75 l 240 75 l 240 492 q 288 590 240 590 q 317 569 310 590 q 325 492 325 547 l 325 0 l 539 0 l 539 75 l 496 75 l 496 483 q 543 590 496 590 q 573 569 565 590 q 581 492 581 547 l 581 0 l 794 0 z "},"n":{"ha":561,"x_min":26,"x_max":539,"o":"m 539 0 l 539 75 l 496 75 l 496 515 q 481 617 496 579 q 445 673 467 654 q 400 697 424 692 q 358 701 376 701 q 301 688 326 701 q 240 642 276 674 l 240 686 l 26 686 l 26 611 l 69 611 l 69 75 l 26 75 l 26 0 l 282 0 l 282 75 l 240 75 l 240 476 q 251 565 240 539 q 292 592 263 592 q 319 572 313 592 q 325 489 325 551 l 325 0 l 539 0 z "},"o":{"ha":533,"x_min":32,"x_max":496,"o":"m 496 344 q 438 612 496 522 q 264 701 379 701 q 91 611 150 701 q 32 344 32 521 q 91 76 32 167 q 264 -14 150 -14 q 438 76 379 -14 q 496 344 496 167 m 315 164 q 313 108 315 129 q 303 74 310 86 q 288 56 297 61 q 264 51 278 51 q 226 74 238 51 q 214 164 214 96 l 214 536 q 225 613 214 590 q 264 635 236 635 q 303 613 292 635 q 315 522 315 590 l 315 164 z "},"p":{"ha":546,"x_min":26,"x_max":511,"o":"m 511 351 q 465 613 511 524 q 328 701 418 701 q 277 689 297 701 q 238 646 257 676 l 229 686 l 26 686 l 26 611 l 69 611 l 69 -133 l 26 -133 l 26 -208 l 286 -208 l 286 -133 l 240 -133 l 240 28 q 295 -5 272 4 q 346 -14 318 -14 q 414 12 383 -14 q 466 85 444 38 q 499 201 488 133 q 511 351 511 268 m 347 374 q 344 222 347 281 q 335 132 342 164 q 318 88 329 100 q 292 76 307 76 q 265 86 275 76 q 249 124 254 96 q 242 206 244 153 q 240 344 240 258 q 242 479 240 428 q 250 558 244 531 q 266 595 256 586 q 293 604 276 604 q 319 592 308 604 q 335 553 329 581 q 344 483 342 526 q 347 374 347 439 z "},"q":{"ha":546,"x_min":32,"x_max":517,"o":"m 517 -208 l 517 -133 l 474 -133 l 474 611 l 517 611 l 517 686 l 318 686 l 306 646 q 265 689 285 676 q 217 701 246 701 q 79 614 126 701 q 32 360 32 526 q 76 82 32 178 q 204 -14 121 -14 q 249 -5 226 -14 q 303 28 271 4 l 303 -133 l 257 -133 l 257 -208 l 517 -208 m 303 236 q 291 115 303 154 q 251 76 279 76 q 226 89 236 76 q 209 135 215 101 q 200 226 203 168 q 197 374 197 283 q 200 483 197 439 q 209 553 203 526 q 226 590 215 579 q 253 601 238 601 q 292 577 281 601 q 303 508 303 553 l 303 236 z "},"r":{"ha":453,"x_min":26,"x_max":442,"o":"m 442 581 q 414 667 442 633 q 340 701 386 701 q 239 644 288 701 l 233 686 l 26 686 l 26 611 l 69 611 l 69 75 l 26 75 l 26 0 l 289 0 l 289 75 l 240 75 l 240 471 q 242 524 240 501 q 251 563 244 546 q 268 594 257 581 q 296 625 279 608 q 281 585 285 601 q 276 549 276 568 q 298 485 276 508 q 354 463 319 463 q 418 494 394 463 q 442 581 442 526 z "},"s":{"ha":456,"x_min":44,"x_max":426,"o":"m 426 176 q 408 267 426 226 q 363 340 390 307 q 303 400 335 372 q 244 454 272 428 q 199 507 217 481 q 181 564 181 533 q 196 608 181 589 q 231 626 211 626 q 294 496 294 626 l 294 482 l 397 482 l 397 686 l 326 686 l 314 667 q 260 694 282 686 q 213 701 239 701 q 146 686 176 701 q 92 644 115 671 q 57 582 69 618 q 44 503 44 546 q 62 413 44 453 q 106 341 79 374 q 163 281 132 308 q 221 228 194 254 q 265 178 247 203 q 282 124 282 153 q 228 65 282 65 q 194 72 208 65 q 172 97 181 79 q 160 146 164 115 q 157 222 157 176 l 60 222 l 60 0 l 135 0 l 143 26 q 200 -6 176 3 q 256 -14 224 -14 q 322 1 290 -14 q 376 41 353 15 q 413 101 400 67 q 426 176 426 136 z "},"t":{"ha":332,"x_min":17,"x_max":321,"o":"m 321 75 l 294 131 q 264 107 276 107 q 242 143 242 107 l 242 611 l 307 611 l 307 686 l 242 686 l 242 853 l 71 853 l 71 686 l 17 686 l 17 611 l 71 611 l 71 185 q 101 39 71 85 q 199 -7 132 -7 q 321 75 276 -7 z "},"u":{"ha":561,"x_min":19,"x_max":532,"o":"m 532 0 l 532 75 l 489 75 l 489 686 l 276 686 l 276 611 l 318 611 l 318 210 q 306 123 318 150 q 267 96 294 96 q 240 111 247 96 q 233 169 233 126 l 233 686 l 19 686 l 19 611 l 63 611 l 63 169 q 74 80 63 115 q 105 24 86 44 q 148 -6 124 3 q 196 -14 172 -14 q 258 1 232 -14 q 318 56 283 15 l 321 0 l 532 0 z "},"v":{"ha":489,"x_min":10,"x_max":478,"o":"m 478 611 l 478 686 l 324 686 l 324 611 l 360 611 l 288 228 l 231 611 l 265 611 l 265 686 l 10 686 l 10 611 l 51 611 l 164 0 l 324 0 l 439 611 l 478 611 z "},"w":{"ha":732,"x_min":18,"x_max":711,"o":"m 711 611 l 711 686 l 558 686 l 558 611 l 601 611 l 544 288 l 478 686 l 349 686 l 272 281 l 228 611 l 271 611 l 271 686 l 18 686 l 18 611 l 49 611 l 153 0 l 296 0 l 361 369 l 425 0 l 563 0 l 681 611 l 711 611 z "},"x":{"ha":536,"x_min":18,"x_max":514,"o":"m 514 0 l 514 75 l 475 75 l 338 397 l 461 611 l 490 611 l 490 686 l 340 686 l 340 611 l 369 611 l 303 488 l 247 611 l 293 611 l 293 686 l 18 686 l 18 611 l 63 611 l 189 304 l 63 75 l 18 75 l 18 0 l 182 0 l 182 75 l 144 75 l 226 211 l 283 75 l 247 75 l 247 0 l 514 0 z "},"y":{"ha":489,"x_min":10,"x_max":478,"o":"m 478 611 l 478 686 l 319 686 l 319 611 l 358 611 l 299 350 l 238 611 l 272 611 l 272 686 l 10 686 l 10 611 l 50 611 l 217 0 l 189 -94 q 125 -8 189 -8 q 64 -38 88 -8 q 40 -117 40 -68 q 68 -190 40 -161 q 138 -218 96 -218 q 224 -174 190 -218 q 282 -26 257 -131 l 436 611 l 478 611 z "},"z":{"ha":482,"x_min":26,"x_max":453,"o":"m 453 0 l 453 269 l 344 269 l 344 75 l 222 75 l 453 629 l 453 686 l 47 686 l 47 449 l 150 449 l 150 611 l 254 611 l 26 47 l 26 0 l 453 0 z "},"{":{"ha":394,"x_min":42,"x_max":375,"o":"m 375 -225 l 375 -169 q 280 -133 306 -169 q 254 -17 254 -96 l 254 218 q 235 336 254 296 q 151 389 215 376 l 151 393 q 207 416 186 401 q 238 453 228 431 q 252 506 249 475 q 256 581 256 538 l 256 738 q 261 822 256 789 q 281 876 267 856 q 317 904 294 896 q 375 913 340 913 l 375 967 l 279 967 q 153 908 189 967 q 117 747 117 849 l 117 525 q 101 438 117 463 q 42 408 86 413 l 42 375 q 103 347 89 372 q 117 249 117 321 l 117 -12 q 130 -127 117 -85 q 167 -191 143 -169 q 222 -219 190 -212 q 290 -225 254 -225 l 375 -225 z "},"|":{"ha":706,"x_min":288,"x_max":417,"o":"m 417 -237 l 417 949 l 288 949 l 288 -237 l 417 -237 z "},"}":{"ha":394,"x_min":42,"x_max":375,"o":"m 375 375 l 375 408 q 315 438 331 413 q 300 525 300 463 l 300 747 q 264 908 300 849 q 138 967 228 967 l 42 967 l 42 913 q 99 904 76 913 q 136 876 122 896 q 156 822 150 856 q 161 738 161 789 l 161 581 q 165 506 161 538 q 178 453 168 475 q 210 416 189 431 q 265 393 231 401 l 265 389 q 182 336 201 376 q 163 218 163 296 l 163 -17 q 137 -133 163 -96 q 42 -169 111 -169 l 42 -225 l 126 -225 q 194 -219 163 -225 q 250 -191 226 -212 q 287 -127 274 -169 q 300 -12 300 -85 l 300 249 q 303 308 300 285 q 314 347 306 332 q 337 367 322 361 q 375 375 351 374 z "},"~":{"ha":739,"x_min":85,"x_max":643,"o":"m 643 631 l 613 649 q 557 599 585 614 q 496 583 529 583 q 447 592 476 583 q 386 610 418 600 q 324 630 354 621 q 271 639 293 639 q 174 601 218 639 q 85 483 129 564 l 114 465 q 162 513 139 494 q 225 532 185 532 q 278 523 247 532 q 341 503 308 514 q 404 484 374 493 q 457 475 435 475 q 558 515 508 475 q 643 631 607 556 z "},"‚":{"ha":314,"x_min":46,"x_max":244,"o":"m 244 72 q 215 173 244 135 q 138 211 186 211 q 72 180 99 211 q 46 100 46 149 q 70 27 46 56 q 133 -1 94 -1 q 145 -1 139 -1 q 163 1 151 0 q 142 -33 151 -19 q 125 -58 133 -47 q 106 -77 117 -68 q 82 -97 96 -86 l 117 -167 q 212 -64 179 -125 q 244 72 244 -3 z "},"ƒ":{"ha":583,"x_min":-112,"x_max":692,"o":"m 692 947 q 660 1017 692 992 q 572 1042 628 1042 q 476 1020 529 1042 q 372 945 422 999 q 278 801 321 892 q 215 574 236 711 l 101 574 l 97 536 l 207 536 q 162 237 178 372 q 131 5 146 101 q 93 -144 115 -92 q 29 -197 71 -197 q 17 -194 22 -197 q 13 -183 13 -190 q 23 -162 13 -175 q 33 -119 33 -149 q 15 -69 33 -89 q -32 -50 -4 -50 q -89 -76 -65 -50 q -112 -139 -112 -103 q -84 -203 -112 -179 q -6 -228 -56 -228 q 110 -193 50 -228 q 223 -72 169 -158 q 321 163 276 15 q 392 536 365 310 l 503 536 l 507 574 l 396 574 q 431 778 413 694 q 468 915 449 863 q 508 990 488 967 q 553 1014 529 1014 q 564 999 564 1014 q 551 966 564 986 q 539 918 539 946 q 558 871 539 888 q 608 854 576 854 q 668 881 644 854 q 692 947 692 907 z "},"„":{"ha":531,"x_min":46,"x_max":461,"o":"m 461 72 q 432 173 461 135 q 354 211 403 211 q 289 180 315 211 q 263 100 263 149 q 287 27 263 56 q 350 -1 311 -1 q 362 -1 356 -1 q 379 1 368 0 q 359 -33 368 -19 q 342 -58 350 -47 q 323 -77 333 -68 q 299 -97 313 -86 l 333 -167 q 428 -64 396 -125 q 461 72 461 -3 m 244 72 q 215 173 244 135 q 138 211 186 211 q 72 180 99 211 q 46 100 46 149 q 70 27 46 56 q 133 -1 94 -1 q 145 -1 139 -1 q 163 1 151 0 q 142 -33 151 -19 q 125 -58 133 -47 q 106 -77 117 -68 q 82 -97 96 -86 l 117 -167 q 212 -64 179 -125 q 244 72 244 -3 z "},"…":{"ha":1178,"x_min":122,"x_max":1050,"o":"m 314 107 q 285 190 314 156 q 217 224 257 224 q 150 190 178 224 q 122 107 122 156 q 150 24 122 58 q 217 -10 178 -10 q 285 24 257 -10 q 314 107 314 58 m 675 107 q 647 190 675 156 q 578 224 618 224 q 511 190 539 224 q 483 107 483 156 q 511 24 483 58 q 578 -10 539 -10 q 647 24 618 -10 q 675 107 675 58 m 1050 107 q 1022 190 1050 156 q 953 224 993 224 q 886 190 914 224 q 858 107 858 156 q 886 24 858 58 q 953 -10 914 -10 q 1022 24 993 -10 q 1050 107 1050 58 z "},"†":{"ha":589,"x_min":60,"x_max":529,"o":"m 529 524 l 529 676 l 315 639 l 375 949 l 213 949 l 272 639 l 60 676 l 60 524 l 272 572 l 219 449 l 258 0 l 329 0 l 368 449 l 315 572 l 529 524 z "},"‡":{"ha":589,"x_min":60,"x_max":529,"o":"m 529 63 l 529 217 l 315 168 l 368 369 l 315 571 l 529 524 l 529 676 l 315 639 l 375 949 l 213 949 l 272 639 l 60 676 l 60 524 l 272 571 l 219 369 l 272 168 l 60 217 l 60 63 l 272 101 l 213 -208 l 375 -208 l 315 101 l 529 63 z "},"ˆ":{"ha":458,"x_min":63,"x_max":381,"o":"m 381 942 l 288 1094 l 169 1094 l 63 942 l 171 942 l 224 1021 l 276 942 l 381 942 z "},"‰":{"ha":1147,"x_min":46,"x_max":1097,"o":"m 1097 286 q 1090 421 1097 365 q 1065 510 1082 476 q 1019 560 1047 544 q 950 575 990 575 q 882 560 910 575 q 838 510 854 544 q 813 421 821 476 q 806 286 806 365 q 813 150 806 206 q 838 60 821 94 q 882 11 854 26 q 950 -4 910 -4 q 1019 11 990 -4 q 1065 60 1047 26 q 1090 150 1082 94 q 1097 286 1097 206 m 760 286 q 752 421 760 365 q 727 510 744 476 q 681 560 710 544 q 613 575 653 575 q 544 560 572 575 q 500 510 517 544 q 476 421 483 476 q 468 286 468 365 q 476 150 468 206 q 500 60 483 94 q 544 11 517 26 q 613 -4 572 -4 q 681 11 653 -4 q 727 60 710 26 q 752 150 744 94 q 760 286 760 206 m 640 949 l 546 949 l 167 0 l 261 0 l 640 949 m 339 663 q 331 797 339 742 q 306 888 324 853 q 261 938 289 922 q 193 953 233 953 q 124 938 153 953 q 78 888 96 922 q 53 797 61 853 q 46 663 46 742 q 53 526 46 582 q 78 437 61 471 q 124 388 96 403 q 193 372 153 372 q 261 388 233 372 q 306 437 289 403 q 331 526 324 471 q 339 663 339 582 m 975 83 q 968 53 975 64 q 950 42 961 42 q 926 93 926 42 l 926 497 q 950 540 926 540 q 975 488 975 540 l 975 83 m 638 83 q 613 42 638 42 q 594 54 599 42 q 589 103 589 67 l 589 497 q 613 540 589 540 q 633 527 628 540 q 638 478 638 514 l 638 83 m 217 461 q 193 418 217 418 q 172 431 178 418 q 167 479 167 443 l 167 874 q 193 917 167 917 q 212 903 207 917 q 217 854 217 890 l 217 461 z "},"Š":{"ha":528,"x_min":54,"x_max":489,"o":"m 489 247 q 468 369 489 313 q 416 474 447 425 q 349 567 385 524 q 281 652 313 611 q 229 733 250 693 q 208 813 208 772 q 224 859 208 840 q 263 878 239 878 q 324 843 303 878 q 344 743 344 808 l 344 676 l 461 676 l 461 949 l 396 949 l 376 897 q 310 946 340 932 q 243 960 281 960 q 168 941 203 960 q 108 890 133 922 q 69 815 83 858 q 54 719 54 771 q 75 600 54 656 q 127 494 96 544 q 195 400 158 444 q 263 313 232 356 q 315 230 294 271 q 336 147 336 189 q 319 90 336 113 q 271 68 301 68 q 176 256 176 68 l 176 311 l 60 311 l 60 0 l 138 0 l 164 43 q 215 0 192 11 q 275 -11 239 -11 q 362 8 322 -11 q 429 61 401 26 q 473 143 457 96 q 489 247 489 190 m 421 1188 l 313 1188 l 260 1108 l 207 1188 l 103 1188 l 196 1035 l 314 1035 l 421 1188 z "},"‹":{"ha":347,"x_min":42,"x_max":282,"o":"m 282 85 l 136 339 l 282 592 l 189 592 l 42 339 l 189 85 l 282 85 z "},"Œ":{"ha":807,"x_min":32,"x_max":768,"o":"m 768 0 l 768 279 l 647 279 l 647 82 l 536 82 l 536 443 l 589 443 l 589 349 l 685 349 l 685 615 l 589 615 l 589 524 l 536 524 l 536 865 l 647 865 l 647 688 l 768 688 l 768 949 l 369 949 q 315 958 333 956 q 279 960 297 960 q 32 442 32 960 q 94 102 32 217 q 276 -12 156 -12 q 315 -10 294 -12 q 372 0 335 -7 l 768 0 m 339 201 q 328 94 339 124 q 288 65 317 65 q 242 94 254 65 q 229 201 229 124 l 229 746 q 242 853 229 824 q 288 882 254 882 q 328 853 317 882 q 339 746 339 824 l 339 201 z "},"‘":{"ha":314,"x_min":46,"x_max":244,"o":"m 244 703 q 221 775 244 747 q 157 803 197 803 q 126 799 149 803 q 147 833 138 819 q 164 858 156 847 q 183 878 172 868 q 208 899 193 888 l 174 967 q 78 865 111 925 q 46 729 46 804 q 76 628 46 667 q 153 590 106 590 q 219 622 193 590 q 244 703 244 654 z "},"’":{"ha":314,"x_min":46,"x_max":244,"o":"m 244 819 q 215 920 244 882 q 138 958 186 958 q 72 926 99 958 q 46 846 46 894 q 70 773 46 801 q 133 744 94 744 q 145 745 139 744 q 163 747 151 746 q 142 713 151 726 q 125 688 133 699 q 106 669 117 678 q 82 650 96 661 l 117 581 q 244 819 244 664 z "},"“":{"ha":531,"x_min":46,"x_max":461,"o":"m 461 711 q 438 783 461 756 q 374 811 414 811 q 362 810 368 811 q 343 808 356 810 q 363 843 354 829 q 381 867 372 857 q 399 887 389 878 q 425 907 410 896 l 389 976 q 295 874 328 935 q 263 738 263 813 q 292 637 263 675 q 369 599 322 599 q 435 631 410 599 q 461 711 461 663 m 244 711 q 221 783 244 756 q 157 811 197 811 q 145 810 151 811 q 126 808 139 810 q 147 843 138 829 q 164 867 156 857 q 183 887 172 878 q 208 907 193 896 l 174 976 q 78 874 111 935 q 46 738 46 813 q 76 637 46 675 q 153 599 106 599 q 219 631 193 599 q 244 711 244 663 z "},"”":{"ha":531,"x_min":46,"x_max":461,"o":"m 461 819 q 432 920 461 882 q 354 958 403 958 q 289 926 315 958 q 263 846 263 894 q 287 773 263 801 q 350 744 311 744 q 362 745 356 744 q 379 747 368 746 q 359 713 368 726 q 342 688 350 699 q 323 669 333 678 q 299 650 313 661 l 333 581 q 428 683 396 621 q 461 819 461 744 m 244 819 q 215 920 244 882 q 138 958 186 958 q 72 926 99 958 q 46 846 46 894 q 70 773 46 801 q 133 744 94 744 q 145 745 139 744 q 163 747 151 746 q 142 713 151 726 q 125 688 133 699 q 106 669 117 678 q 82 650 96 661 l 117 581 q 244 819 244 664 z "},"•":{"ha":633,"x_min":136,"x_max":494,"o":"m 494 482 q 481 552 494 519 q 442 609 467 585 q 385 647 418 633 q 315 661 353 661 q 245 647 278 661 q 188 609 213 633 q 150 552 164 585 q 136 482 136 519 q 150 412 136 444 q 188 355 164 379 q 245 317 213 331 q 315 303 278 303 q 385 317 353 303 q 442 355 418 331 q 481 412 467 379 q 494 482 494 444 z "},"–":{"ha":583,"x_min":53,"x_max":528,"o":"m 528 278 l 528 422 l 53 422 l 53 278 l 528 278 z "},"—":{"ha":569,"x_min":0,"x_max":567,"o":"m 567 278 l 567 422 l 0 422 l 0 278 l 567 278 z "},"˜":{"ha":458,"x_min":53,"x_max":408,"o":"m 408 1046 l 360 1046 q 342 1025 349 1031 q 326 1019 336 1019 q 300 1024 317 1019 q 263 1033 283 1028 q 221 1043 243 1039 q 181 1047 199 1047 q 97 1016 132 1047 q 53 933 61 985 l 103 933 q 140 961 111 961 q 167 957 149 961 q 206 949 185 953 q 249 940 228 944 q 282 936 269 936 q 365 967 329 936 q 408 1046 401 997 z "},"™":{"ha":750,"x_min":44,"x_max":682,"o":"m 297 899 l 297 1064 l 44 1064 l 44 899 l 96 899 l 96 1022 l 125 1022 l 125 631 l 101 631 l 101 588 l 240 588 l 240 631 l 217 631 l 217 1022 l 246 1022 l 246 899 l 297 899 m 682 586 l 682 629 l 660 629 l 660 1021 l 682 1021 l 682 1063 l 543 1063 l 510 833 l 478 1063 l 336 1063 l 336 1021 l 360 1021 l 360 629 l 336 629 l 336 586 l 425 586 l 425 629 l 400 629 l 400 931 l 451 586 l 513 586 l 567 926 l 567 629 l 543 629 l 543 586 l 682 586 z "},"š":{"ha":456,"x_min":44,"x_max":426,"o":"m 426 176 q 408 267 426 226 q 363 340 390 307 q 303 400 335 372 q 244 454 272 428 q 199 507 217 481 q 181 564 181 533 q 196 608 181 589 q 231 626 211 626 q 294 496 294 626 l 294 482 l 397 482 l 397 686 l 326 686 l 314 667 q 260 694 282 686 q 213 701 239 701 q 146 686 176 701 q 92 644 115 671 q 57 582 69 618 q 44 503 44 546 q 62 413 44 453 q 106 341 79 374 q 163 281 132 308 q 221 228 194 254 q 265 178 247 203 q 282 124 282 153 q 228 65 282 65 q 194 72 208 65 q 172 97 181 79 q 160 146 164 115 q 157 222 157 176 l 60 222 l 60 0 l 135 0 l 143 26 q 200 -6 176 3 q 256 -14 224 -14 q 322 1 290 -14 q 376 41 353 15 q 413 101 400 67 q 426 176 426 136 m 382 896 l 274 896 l 221 817 l 168 896 l 64 896 l 157 743 l 275 743 l 382 896 z "},"›":{"ha":347,"x_min":61,"x_max":301,"o":"m 301 339 l 154 592 l 61 592 l 207 339 l 61 85 l 154 85 l 301 339 z "},"œ":{"ha":781,"x_min":32,"x_max":744,"o":"m 744 214 l 669 225 q 631 116 657 150 q 561 82 604 82 q 497 118 515 82 q 479 247 479 154 q 480 278 479 258 q 481 310 481 297 q 481 325 481 324 l 736 325 q 737 342 736 325 q 738 364 738 358 q 682 616 738 529 q 521 703 626 703 q 453 692 481 703 q 397 658 425 682 q 264 703 338 703 q 91 613 150 703 q 32 346 32 522 q 91 78 32 168 q 264 -12 150 -12 q 404 35 343 -12 q 463 -1 433 10 q 529 -12 492 -12 q 674 47 617 -12 q 744 214 732 107 m 578 393 l 481 393 l 481 501 q 494 600 481 569 q 535 631 507 631 q 578 519 578 631 l 578 393 m 315 151 q 303 74 315 96 q 264 53 292 53 q 226 73 238 53 q 214 151 214 93 l 214 538 q 225 613 214 589 q 264 638 236 638 q 303 617 292 638 q 315 538 315 596 l 315 151 z "},"Ÿ":{"ha":553,"x_min":1,"x_max":533,"o":"m 533 865 l 533 949 l 365 949 l 365 865 l 413 865 l 326 513 l 243 865 l 288 865 l 288 949 l 1 949 l 1 865 l 42 865 l 185 350 l 185 82 l 133 82 l 133 0 l 422 0 l 422 82 l 365 82 l 365 371 l 490 865 l 533 865 m 457 1104 q 439 1147 457 1129 q 394 1165 421 1165 q 350 1147 368 1165 q 332 1104 332 1129 q 350 1060 332 1078 q 394 1042 368 1042 q 439 1060 421 1042 q 457 1104 457 1078 m 278 1104 q 260 1147 278 1129 q 217 1165 242 1165 q 172 1147 190 1165 q 153 1104 153 1129 q 172 1060 153 1078 q 217 1042 190 1042 q 260 1060 242 1042 q 278 1104 278 1078 z "},"¡":{"ha":399,"x_min":81,"x_max":317,"o":"m 81 -43 q 114 -140 81 -103 q 199 -178 147 -178 q 284 -140 251 -178 q 317 -43 317 -103 q 314 3 317 -24 q 308 51 311 29 l 235 526 l 164 526 l 88 51 q 83 5 85 33 q 81 -43 81 -24 m 101 676 q 130 594 101 628 q 199 560 158 560 q 267 594 239 560 q 294 676 294 628 q 267 759 294 725 q 199 793 239 793 q 130 759 158 793 q 101 676 101 725 z "},"¢":{"ha":583,"x_min":86,"x_max":497,"o":"m 497 328 l 422 343 q 394 228 413 260 q 336 197 376 197 q 299 208 314 197 q 276 247 285 219 q 265 319 268 274 q 261 432 261 364 q 265 582 261 524 q 276 674 268 640 q 299 722 285 708 q 335 735 314 735 q 385 688 375 735 q 313 604 313 683 q 339 536 313 564 q 403 508 365 508 q 469 540 444 508 q 494 624 494 572 q 446 753 494 703 q 318 808 397 804 l 318 890 l 268 890 l 268 804 q 130 697 174 781 q 86 458 86 613 q 131 200 86 289 q 268 96 175 111 l 268 0 l 318 0 l 318 96 q 386 116 357 101 q 436 158 415 131 q 472 226 457 185 q 497 328 486 268 z "},"£":{"ha":583,"x_min":46,"x_max":536,"o":"m 536 251 l 536 306 l 472 306 q 454 208 472 235 q 390 181 436 181 q 364 184 375 181 q 333 199 353 188 q 355 288 349 250 q 361 369 361 325 q 360 401 361 385 q 356 442 358 417 l 458 442 l 458 507 l 333 507 q 303 594 325 558 q 260 658 282 629 q 220 715 238 688 q 203 781 203 743 q 232 871 203 833 q 306 908 261 908 q 348 898 331 908 q 381 863 365 888 q 350 821 358 839 q 342 782 342 803 q 367 718 342 744 q 431 692 393 692 q 501 719 474 692 q 528 792 528 747 q 510 863 528 829 q 463 922 493 897 q 394 962 433 947 q 310 976 354 976 q 205 956 253 976 q 122 901 157 936 q 66 818 86 867 q 46 714 46 769 q 64 611 46 660 q 121 507 82 563 l 74 507 l 74 442 l 182 442 q 254 342 232 383 q 276 268 276 300 q 269 235 276 254 q 230 262 246 251 q 201 278 214 272 q 178 285 189 283 q 156 288 168 288 q 50 139 50 288 q 80 31 50 71 q 158 -10 110 -10 q 215 6 190 -10 q 269 60 240 22 q 326 5 301 19 q 385 -10 351 -10 q 536 251 536 -10 m 225 126 q 197 101 218 115 q 160 88 175 88 q 118 147 118 88 q 128 192 118 175 q 156 208 139 208 q 173 206 165 208 q 188 194 181 203 q 203 170 194 186 q 225 126 213 154 z "},"¤":{"ha":940,"x_min":50,"x_max":886,"o":"m 886 842 l 819 907 l 679 767 q 662 777 679 767 q 615 801 644 788 q 547 824 585 814 q 467 835 508 835 q 378 824 418 835 q 311 801 339 814 q 268 778 283 789 q 253 768 253 768 l 117 906 l 50 839 l 186 703 q 176 684 186 703 q 153 634 165 665 q 131 563 142 603 q 121 478 121 522 q 131 391 121 429 q 155 326 142 353 q 178 284 168 299 q 189 269 189 269 l 51 132 l 118 65 l 256 204 q 271 194 256 204 q 315 171 286 183 q 382 148 343 158 q 467 138 421 138 q 550 148 511 138 q 617 172 589 158 q 663 195 646 185 q 679 206 679 206 l 817 67 l 883 133 l 743 276 q 753 291 743 276 q 774 333 763 306 q 796 399 786 360 q 806 486 806 438 q 796 570 806 532 q 775 637 786 608 q 754 681 764 665 q 744 696 744 696 l 886 842 m 667 486 q 651 408 667 444 q 608 344 635 371 q 544 301 581 317 q 467 285 508 285 q 388 301 425 285 q 324 344 351 317 q 281 408 297 371 q 265 486 265 444 q 281 565 265 528 q 324 628 297 601 q 388 672 351 656 q 467 688 425 688 q 544 672 508 688 q 608 628 581 656 q 651 565 635 601 q 667 486 667 528 z "},"¥":{"ha":583,"x_min":50,"x_max":531,"o":"m 531 865 l 531 949 l 379 949 l 379 865 l 419 865 l 344 511 l 269 865 l 308 865 l 308 949 l 50 949 l 50 865 l 88 865 l 167 544 l 72 544 l 72 479 l 185 479 l 199 422 l 72 422 l 72 357 l 217 357 l 217 82 l 169 82 l 169 0 l 429 0 l 429 82 l 379 82 l 379 357 l 508 357 l 508 422 l 390 422 l 404 479 l 508 479 l 508 544 l 419 544 l 490 865 l 531 865 z "},"¦":{"ha":706,"x_min":288,"x_max":417,"o":"m 417 449 l 417 949 l 288 949 l 288 449 l 417 449 m 417 -237 l 417 218 l 288 218 l 288 -237 l 417 -237 z "},"§":{"ha":636,"x_min":61,"x_max":571,"o":"m 571 382 q 547 472 571 433 q 485 541 522 510 q 406 598 449 572 q 327 651 364 624 q 266 707 290 678 q 242 774 242 736 q 259 818 242 800 q 303 836 276 836 q 356 806 339 836 q 372 729 372 776 l 528 729 q 467 897 525 836 q 308 957 410 957 q 221 942 261 957 q 151 901 181 926 q 104 840 121 875 q 88 763 88 804 q 93 706 88 732 q 112 654 99 679 q 146 603 125 629 q 199 547 167 576 q 92 456 122 499 q 61 356 61 414 q 85 272 61 308 q 144 204 108 235 q 220 147 179 174 q 297 94 261 121 q 356 40 332 68 q 379 -24 379 11 q 363 -83 379 -60 q 319 -106 346 -106 q 256 6 256 -106 l 103 6 q 119 -99 103 -56 q 166 -169 136 -142 q 237 -210 196 -197 q 325 -222 278 -222 q 411 -206 371 -222 q 481 -162 451 -190 q 528 -97 511 -135 q 546 -17 546 -60 q 519 89 546 39 q 433 192 492 139 q 538 281 506 236 q 571 382 571 325 m 428 336 q 414 290 428 311 q 367 240 400 268 q 285 296 317 274 q 237 335 254 318 q 213 368 219 353 q 206 403 206 383 q 216 447 206 425 q 256 499 226 468 q 341 442 307 465 q 394 400 375 418 q 420 367 413 382 q 428 336 428 351 z "},"¨":{"ha":458,"x_min":75,"x_max":389,"o":"m 389 1006 q 370 1051 389 1032 q 325 1069 351 1069 q 278 1051 297 1069 q 260 1006 260 1032 q 278 959 260 978 q 325 940 297 940 q 370 959 351 940 q 389 1006 389 978 m 204 1006 q 185 1051 204 1032 q 140 1069 167 1069 q 94 1051 113 1069 q 75 1006 75 1032 q 94 959 75 978 q 140 940 113 940 q 185 959 167 940 q 204 1006 204 978 z "},"©":{"ha":1133,"x_min":78,"x_max":1051,"o":"m 1051 475 q 1013 666 1051 576 q 909 822 975 756 q 754 928 843 889 q 564 967 665 967 q 375 928 464 967 q 220 822 286 889 q 116 666 154 756 q 78 475 78 576 q 116 283 78 372 q 220 126 154 193 q 375 21 286 60 q 564 -18 464 -18 q 754 21 665 -18 q 909 126 843 60 q 1013 283 975 193 q 1051 475 1051 372 m 996 475 q 962 305 996 385 q 869 166 928 225 q 732 73 811 107 q 564 39 653 39 q 397 73 475 39 q 260 166 318 107 q 167 305 201 225 q 133 475 133 385 q 167 644 133 565 q 260 783 201 724 q 397 876 318 842 q 564 910 475 910 q 732 876 653 910 q 869 783 811 842 q 962 644 928 724 q 996 475 996 565 m 682 378 l 682 407 l 633 407 q 619 294 633 326 q 575 261 604 261 q 544 285 551 261 q 536 379 536 310 l 536 581 q 537 645 536 621 q 541 682 538 669 q 551 698 544 694 q 568 701 557 701 q 596 684 589 701 q 603 618 603 667 l 603 564 l 682 564 l 682 749 l 638 749 l 624 726 q 592 749 607 742 q 556 756 576 756 q 446 689 481 756 q 411 481 411 622 q 448 272 411 342 q 560 201 485 201 q 649 249 617 201 q 682 378 682 296 z "},"ª":{"ha":378,"x_min":39,"x_max":343,"o":"m 331 594 l 314 643 q 294 622 299 622 q 289 631 289 622 l 289 829 q 178 950 289 950 q 92 926 124 950 q 60 861 60 901 q 75 820 60 838 q 113 803 90 803 q 149 819 133 803 q 164 856 164 835 q 143 899 164 879 q 157 904 149 904 q 183 895 176 904 q 189 861 189 886 l 189 783 l 156 783 q 80 754 107 783 q 53 671 53 725 q 78 590 53 619 q 144 560 103 560 q 180 566 167 560 q 204 588 193 572 q 231 565 219 571 q 261 560 243 560 q 299 567 285 560 q 331 594 313 575 m 343 424 l 343 474 l 39 474 l 39 424 l 343 424 m 189 661 q 185 628 189 638 q 172 619 181 619 q 150 674 150 621 q 156 725 150 714 q 189 736 161 736 l 189 661 z "},"«":{"ha":478,"x_min":42,"x_max":414,"o":"m 414 85 l 267 339 l 414 592 l 321 592 l 174 339 l 321 85 l 414 85 m 282 85 l 136 339 l 282 592 l 189 592 l 42 339 l 189 85 l 282 85 z "},"®":{"ha":1133,"x_min":78,"x_max":1051,"o":"m 1051 475 q 1013 666 1051 576 q 909 822 975 756 q 754 928 843 889 q 564 967 665 967 q 375 928 464 967 q 220 822 286 889 q 116 666 154 756 q 78 475 78 576 q 116 283 78 372 q 220 126 154 193 q 375 21 286 60 q 564 -18 464 -18 q 754 21 665 -18 q 909 126 843 60 q 1013 283 975 193 q 1051 475 1051 372 m 996 475 q 962 305 996 385 q 869 166 928 225 q 732 73 811 107 q 564 39 653 39 q 397 73 475 39 q 260 166 318 107 q 167 305 201 225 q 133 475 133 385 q 167 644 133 565 q 260 783 201 724 q 397 876 318 842 q 564 910 475 910 q 732 876 653 910 q 869 783 811 842 q 962 644 928 724 q 996 475 996 565 m 732 208 l 732 264 l 706 264 l 706 360 q 703 408 706 389 q 692 442 700 428 q 672 465 685 456 q 640 482 660 475 q 692 524 676 496 q 708 601 708 551 q 701 673 708 644 q 673 718 693 701 q 620 742 653 735 q 538 749 588 749 l 397 749 l 397 693 l 425 693 l 425 264 l 397 264 l 397 208 l 571 208 l 571 264 l 542 264 l 542 450 q 581 438 572 450 q 589 383 589 425 l 589 208 l 732 208 m 589 547 q 581 511 589 519 q 542 503 572 503 l 542 693 q 581 684 574 693 q 589 642 589 675 l 589 547 z "},"¯":{"ha":706,"x_min":193,"x_max":511,"o":"m 511 790 l 511 881 l 193 881 l 193 790 l 511 790 z "},"°":{"ha":583,"x_min":118,"x_max":464,"o":"m 464 769 q 450 838 464 806 q 413 895 436 871 q 358 934 389 919 q 292 949 326 949 q 224 934 256 949 q 169 895 193 919 q 132 839 146 871 q 118 771 118 807 q 132 702 118 735 q 169 645 146 669 q 223 607 192 621 q 289 593 254 593 q 357 607 325 593 q 413 644 389 621 q 450 700 436 668 q 464 769 464 732 m 392 771 q 363 697 392 726 q 290 667 333 667 q 220 697 250 667 q 190 768 190 728 q 219 843 190 813 q 292 874 249 874 q 362 844 332 874 q 392 771 392 814 z "},"±":{"ha":583,"x_min":75,"x_max":506,"o":"m 506 422 l 506 526 l 346 526 l 346 692 l 235 692 l 235 526 l 75 526 l 75 422 l 235 422 l 235 256 l 346 256 l 346 422 l 506 422 m 506 43 l 506 146 l 75 146 l 75 43 l 506 43 z "},"²":{"ha":311,"x_min":35,"x_max":247,"o":"m 247 874 q 238 924 247 900 q 214 965 229 947 q 178 992 199 982 q 135 1001 158 1001 q 63 970 92 1001 q 35 892 35 939 q 48 835 35 856 q 83 814 61 814 q 113 828 101 814 q 124 865 124 842 q 115 897 124 885 q 93 910 107 910 q 68 900 83 910 l 68 913 q 81 946 68 932 q 113 960 93 960 q 156 875 156 960 q 150 809 156 828 q 129 774 144 790 l 99 740 q 76 714 86 726 q 59 686 67 701 q 48 651 51 671 q 44 601 44 631 l 44 522 l 246 522 l 246 660 l 207 660 l 207 617 l 79 617 q 128 706 83 678 l 158 725 q 226 791 206 756 q 247 874 247 826 z "},"³":{"ha":311,"x_min":25,"x_max":267,"o":"m 267 651 q 192 765 267 738 q 241 815 228 792 q 254 874 254 838 q 223 967 254 932 q 139 1001 192 1001 q 63 973 94 1001 q 32 904 32 944 q 48 854 32 874 q 88 835 64 835 q 117 849 106 835 q 129 883 129 863 q 82 935 129 926 q 119 958 96 958 q 149 944 142 958 q 157 888 157 929 q 156 832 157 853 q 150 801 154 811 q 137 788 146 790 q 113 785 128 785 l 113 743 q 142 739 131 742 q 158 726 153 736 q 164 698 163 717 q 165 646 165 679 q 125 556 165 556 q 88 578 104 556 q 115 599 107 589 q 122 626 122 610 q 110 660 122 647 q 75 672 97 672 q 39 656 53 672 q 25 613 25 640 q 57 544 25 572 q 136 517 89 517 q 231 555 194 517 q 267 651 267 593 z "},"´":{"ha":458,"x_min":138,"x_max":401,"o":"m 401 1079 l 236 1079 l 138 928 l 229 928 l 401 1079 z "},"µ":{"ha":583,"x_min":44,"x_max":557,"o":"m 557 0 l 557 75 l 515 75 l 515 686 l 303 686 l 303 611 l 343 611 l 343 210 q 331 123 343 150 q 293 96 319 96 q 265 117 271 96 q 258 197 258 138 l 258 686 l 44 686 l 44 611 l 88 611 l 88 183 q 90 116 88 156 q 92 51 92 76 q 87 -18 92 18 q 76 -87 82 -54 q 65 -150 69 -121 q 60 -197 60 -179 q 80 -256 60 -233 q 132 -279 100 -279 q 182 -258 164 -279 q 200 -201 200 -236 q 196 -152 200 -185 q 188 -87 192 -119 q 179 -30 183 -54 q 175 -6 175 -6 q 187 -10 175 -6 q 221 -14 199 -14 q 283 1 257 -14 q 343 56 310 15 l 346 0 l 557 0 z "},"¶":{"ha":663,"x_min":35,"x_max":619,"o":"m 619 -208 l 619 -126 l 572 -126 l 572 865 l 619 865 l 619 949 l 322 949 q 199 936 253 949 q 108 893 144 924 q 53 810 72 863 q 35 679 35 758 q 47 566 35 617 q 87 479 60 515 q 158 424 114 443 q 267 404 203 404 l 325 404 l 325 -126 l 265 -126 l 265 -208 l 413 -208 l 413 865 l 485 865 l 485 -208 l 619 -208 m 325 482 l 311 482 q 266 487 283 482 q 239 506 249 492 q 226 544 229 519 q 222 608 222 569 l 222 764 q 243 845 222 825 q 325 865 264 865 l 325 482 z "},"·":{"ha":346,"x_min":82,"x_max":247,"o":"m 247 344 q 223 403 247 379 q 164 428 199 428 q 106 403 129 428 q 82 344 82 379 q 106 285 82 310 q 164 261 129 261 q 223 285 199 261 q 247 344 247 310 z "},"¸":{"ha":458,"x_min":122,"x_max":322,"o":"m 322 -132 q 236 -50 322 -50 l 236 0 l 178 0 l 178 -94 q 185 -94 178 -94 q 200 -93 193 -93 q 251 -144 251 -93 q 222 -182 251 -182 q 190 -146 194 -182 l 122 -146 q 218 -232 126 -232 q 294 -206 267 -232 q 322 -132 322 -179 z "},"¹":{"ha":250,"x_min":46,"x_max":197,"o":"m 197 539 l 197 581 l 174 581 l 174 1014 l 103 1014 l 46 915 l 63 882 l 79 896 l 79 581 l 54 581 l 54 539 l 197 539 z "},"º":{"ha":378,"x_min":35,"x_max":339,"o":"m 318 754 q 285 901 318 851 q 189 950 251 950 q 58 754 58 950 q 189 561 58 561 q 285 610 251 561 q 318 754 318 658 m 339 424 l 339 474 l 35 474 l 35 424 l 339 424 m 211 668 q 208 615 211 625 q 189 606 204 606 q 168 616 172 606 q 164 668 164 626 l 164 844 q 168 895 164 885 q 189 906 172 906 q 207 896 203 906 q 211 843 211 886 l 211 668 z "},"»":{"ha":478,"x_min":61,"x_max":432,"o":"m 432 339 l 286 592 l 192 592 l 339 339 l 192 85 l 286 85 l 432 339 m 301 339 l 154 592 l 61 592 l 207 339 l 61 85 l 154 85 l 301 339 z "},"¼":{"ha":772,"x_min":74,"x_max":685,"o":"m 225 539 l 225 581 l 201 581 l 201 1014 l 131 1014 l 74 915 l 90 882 l 107 896 l 107 581 l 82 581 l 82 539 l 225 539 m 685 -1 l 685 42 l 658 42 l 658 133 l 685 133 l 685 179 l 658 179 l 658 475 l 576 475 l 450 176 l 464 133 l 568 133 l 568 42 l 539 42 l 539 -1 l 685 -1 m 568 179 l 496 179 l 568 365 l 568 179 m 590 906 l 503 906 l 146 -6 l 235 -6 l 590 906 z "},"½":{"ha":811,"x_min":74,"x_max":714,"o":"m 225 539 l 225 581 l 201 581 l 201 1014 l 131 1014 l 74 915 l 90 882 l 107 896 l 107 581 l 82 581 l 82 539 l 225 539 m 714 351 q 705 401 714 378 q 681 442 696 425 q 645 469 665 460 q 601 479 625 479 q 530 448 558 479 q 501 369 501 417 q 515 313 501 333 q 550 292 528 292 q 579 306 568 292 q 590 343 590 319 q 582 375 590 363 q 560 388 574 388 q 535 378 550 388 l 535 390 q 547 424 535 410 q 579 438 560 438 q 622 353 622 438 q 617 287 622 306 q 596 251 611 268 l 565 218 q 543 192 553 204 q 526 164 533 179 q 515 128 518 149 q 511 79 511 108 l 511 0 l 713 0 l 713 138 l 674 138 l 674 94 l 546 94 q 594 183 550 156 l 625 203 q 693 269 672 233 q 714 351 714 304 m 590 906 l 503 906 l 146 -6 l 235 -6 l 590 906 z "},"¾":{"ha":828,"x_min":25,"x_max":718,"o":"m 267 651 q 192 765 267 738 q 241 815 228 792 q 254 874 254 838 q 223 967 254 932 q 139 1001 192 1001 q 63 973 94 1001 q 32 904 32 944 q 48 854 32 874 q 88 835 64 835 q 117 849 106 835 q 129 883 129 863 q 82 935 129 926 q 119 958 96 958 q 149 944 142 958 q 157 888 157 929 q 156 832 157 853 q 150 801 154 811 q 137 788 146 790 q 113 785 128 785 l 113 743 q 142 739 131 742 q 158 726 153 736 q 164 698 163 717 q 165 646 165 679 q 125 556 165 556 q 88 578 104 556 q 115 599 107 589 q 122 626 122 610 q 110 660 122 647 q 75 672 97 672 q 39 656 53 672 q 25 613 25 640 q 57 544 25 572 q 136 517 89 517 q 231 555 194 517 q 267 651 267 593 m 718 3 l 718 46 l 692 46 l 692 138 l 718 138 l 718 183 l 692 183 l 692 479 l 610 479 l 483 181 l 497 138 l 601 138 l 601 46 l 572 46 l 572 3 l 718 3 m 601 183 l 529 183 l 601 369 l 601 183 m 590 906 l 503 906 l 146 -6 l 235 -6 l 590 906 z "},"¿":{"ha":560,"x_min":42,"x_max":478,"o":"m 42 57 q 59 -37 42 6 q 108 -110 76 -79 q 181 -159 139 -142 q 275 -176 224 -176 q 355 -161 318 -176 q 419 -119 392 -146 q 462 -56 446 -92 q 478 21 478 -21 q 449 120 478 83 q 372 157 421 157 q 301 128 328 157 q 275 51 275 99 q 296 -12 275 13 q 350 -37 317 -37 q 374 -33 364 -37 q 385 -28 385 -28 q 358 -72 378 -57 q 313 -87 339 -87 q 247 -45 271 -87 q 222 74 222 -3 q 245 182 222 136 q 295 276 268 228 q 345 382 322 324 q 368 526 368 440 l 288 526 q 263 435 283 474 q 216 364 243 396 q 158 303 189 332 q 102 239 128 274 q 59 160 76 204 q 42 57 42 117 m 224 679 q 252 597 224 631 q 321 563 281 563 q 389 597 361 563 q 417 679 417 631 q 389 762 417 728 q 321 796 361 796 q 252 762 281 796 q 224 679 224 728 z "},"À":{"ha":567,"x_min":10,"x_max":556,"o":"m 556 0 l 556 82 l 510 82 l 376 949 l 150 949 l 49 82 l 10 82 l 10 0 l 179 0 l 179 82 l 126 82 l 150 285 l 292 285 l 324 82 l 271 82 l 271 0 l 556 0 m 278 365 l 161 365 l 217 808 l 278 365 m 347 1022 l 249 1174 l 83 1174 l 257 1022 l 347 1022 z "},"Á":{"ha":567,"x_min":10,"x_max":556,"o":"m 556 0 l 556 82 l 510 82 l 376 949 l 150 949 l 49 82 l 10 82 l 10 0 l 179 0 l 179 82 l 126 82 l 150 285 l 292 285 l 324 82 l 271 82 l 271 0 l 556 0 m 278 365 l 161 365 l 217 808 l 278 365 m 447 1176 l 282 1176 l 183 1025 l 275 1025 l 447 1176 z "},"Â":{"ha":567,"x_min":10,"x_max":556,"o":"m 556 0 l 556 82 l 510 82 l 376 949 l 150 949 l 49 82 l 10 82 l 10 0 l 179 0 l 179 82 l 126 82 l 150 285 l 292 285 l 324 82 l 271 82 l 271 0 l 556 0 m 278 365 l 161 365 l 217 808 l 278 365 m 422 1022 l 329 1175 l 211 1175 l 104 1022 l 213 1022 l 265 1101 l 318 1022 l 422 1022 z "},"Ã":{"ha":567,"x_min":10,"x_max":556,"o":"m 556 0 l 556 82 l 510 82 l 376 949 l 150 949 l 49 82 l 10 82 l 10 0 l 179 0 l 179 82 l 126 82 l 150 285 l 292 285 l 324 82 l 271 82 l 271 0 l 556 0 m 278 365 l 161 365 l 217 808 l 278 365 m 457 1150 l 408 1150 q 391 1129 397 1135 q 375 1124 385 1124 q 349 1128 365 1124 q 312 1138 332 1132 q 269 1147 292 1143 q 229 1151 247 1151 q 145 1120 181 1151 q 101 1038 110 1089 l 151 1038 q 189 1065 160 1065 q 215 1061 197 1065 q 255 1053 233 1057 q 297 1044 276 1049 q 331 1040 318 1040 q 414 1071 378 1040 q 457 1150 450 1101 z "},"Ä":{"ha":567,"x_min":10,"x_max":556,"o":"m 556 0 l 556 82 l 510 82 l 376 949 l 150 949 l 49 82 l 10 82 l 10 0 l 179 0 l 179 82 l 126 82 l 150 285 l 292 285 l 324 82 l 271 82 l 271 0 l 556 0 m 278 365 l 161 365 l 217 808 l 278 365 m 422 1096 q 403 1141 422 1122 q 358 1160 385 1160 q 312 1141 331 1160 q 293 1096 293 1122 q 312 1049 293 1068 q 358 1031 331 1031 q 403 1049 385 1031 q 422 1096 422 1068 m 238 1096 q 219 1141 238 1122 q 174 1160 200 1160 q 127 1141 146 1160 q 108 1096 108 1122 q 127 1049 108 1068 q 174 1031 146 1031 q 219 1049 200 1031 q 238 1096 238 1068 z "},"Å":{"ha":567,"x_min":10,"x_max":556,"o":"m 556 0 l 556 82 l 510 82 l 376 949 l 150 949 l 49 82 l 10 82 l 10 0 l 179 0 l 179 82 l 126 82 l 150 285 l 292 285 l 324 82 l 271 82 l 271 0 l 556 0 m 278 365 l 161 365 l 217 808 l 278 365 m 368 1111 q 360 1151 368 1132 q 337 1185 351 1171 q 304 1209 322 1200 q 265 1218 286 1218 q 189 1187 219 1218 q 158 1110 158 1156 q 190 1038 158 1067 q 265 1008 221 1008 q 338 1038 308 1008 q 368 1111 368 1068 m 313 1110 q 299 1076 313 1089 q 263 1064 285 1064 q 227 1077 240 1064 q 214 1113 214 1090 q 227 1149 214 1135 q 261 1163 240 1163 q 297 1147 281 1163 q 313 1110 313 1131 z "},"Æ":{"ha":786,"x_min":10,"x_max":749,"o":"m 749 0 l 749 279 l 628 279 l 628 82 l 518 82 l 518 443 l 569 443 l 569 349 l 665 349 l 665 615 l 569 615 l 569 524 l 518 524 l 518 865 l 628 865 l 628 688 l 749 688 l 749 949 l 235 949 l 235 865 l 278 865 l 56 82 l 10 82 l 10 0 l 178 0 l 178 82 l 132 82 l 190 285 l 332 285 l 332 82 l 286 82 l 286 0 l 749 0 m 332 365 l 211 365 l 332 800 l 332 365 z "},"Ç":{"ha":535,"x_min":39,"x_max":492,"o":"m 492 294 q 491 319 492 301 q 490 336 490 336 l 422 336 q 393 135 418 194 q 315 76 368 76 q 284 83 299 76 q 259 110 269 89 q 243 176 249 132 q 238 294 238 219 l 238 697 q 241 793 238 757 q 251 849 244 829 q 271 874 258 868 q 301 881 283 881 q 331 876 318 881 q 352 855 343 871 q 366 810 361 839 q 371 733 371 781 l 371 635 l 490 635 l 490 949 l 426 949 l 403 901 q 344 948 371 935 q 279 961 317 961 q 97 844 156 961 q 39 478 39 726 q 91 133 39 254 q 247 -8 143 11 l 247 -94 q 255 -94 247 -94 q 269 -93 263 -93 q 321 -144 321 -93 q 292 -182 321 -182 q 260 -146 264 -182 l 192 -146 q 288 -232 196 -232 q 364 -206 336 -232 q 392 -132 392 -179 q 306 -50 392 -50 l 306 -11 q 442 79 392 -3 q 492 294 492 161 z "},"È":{"ha":540,"x_min":35,"x_max":499,"o":"m 499 0 l 499 279 l 376 279 l 376 82 l 267 82 l 267 443 l 321 443 l 321 349 l 417 349 l 417 615 l 321 615 l 321 524 l 267 524 l 267 865 l 376 865 l 376 688 l 499 688 l 499 949 l 35 949 l 35 865 l 82 865 l 82 82 l 35 82 l 35 0 l 499 0 m 356 1031 l 257 1182 l 92 1182 l 265 1031 l 356 1031 z "},"É":{"ha":540,"x_min":35,"x_max":499,"o":"m 499 0 l 499 279 l 376 279 l 376 82 l 267 82 l 267 443 l 321 443 l 321 349 l 417 349 l 417 615 l 321 615 l 321 524 l 267 524 l 267 865 l 376 865 l 376 688 l 499 688 l 499 949 l 35 949 l 35 865 l 82 865 l 82 82 l 35 82 l 35 0 l 499 0 m 457 1185 l 292 1185 l 193 1033 l 285 1033 l 457 1185 z "},"Ê":{"ha":540,"x_min":35,"x_max":499,"o":"m 499 0 l 499 279 l 376 279 l 376 82 l 267 82 l 267 443 l 321 443 l 321 349 l 417 349 l 417 615 l 321 615 l 321 524 l 267 524 l 267 865 l 376 865 l 376 688 l 499 688 l 499 949 l 35 949 l 35 865 l 82 865 l 82 82 l 35 82 l 35 0 l 499 0 m 429 1031 l 336 1183 l 218 1183 l 111 1031 l 219 1031 l 272 1110 l 325 1031 l 429 1031 z "},"Ë":{"ha":540,"x_min":35,"x_max":499,"o":"m 499 0 l 499 279 l 376 279 l 376 82 l 267 82 l 267 443 l 321 443 l 321 349 l 417 349 l 417 615 l 321 615 l 321 524 l 267 524 l 267 865 l 376 865 l 376 688 l 499 688 l 499 949 l 35 949 l 35 865 l 82 865 l 82 82 l 35 82 l 35 0 l 499 0 m 440 1107 q 422 1152 440 1133 q 376 1171 403 1171 q 330 1152 349 1171 q 311 1107 311 1133 q 330 1060 311 1079 q 376 1042 349 1042 q 422 1060 403 1042 q 440 1107 440 1079 m 256 1107 q 237 1152 256 1133 q 192 1171 218 1171 q 145 1152 164 1171 q 126 1107 126 1133 q 145 1060 126 1079 q 192 1042 164 1042 q 237 1060 218 1042 q 256 1107 256 1079 z "},"Ì":{"ha":353,"x_min":35,"x_max":314,"o":"m 314 0 l 314 82 l 267 82 l 267 865 l 314 865 l 314 949 l 35 949 l 35 865 l 82 865 l 82 82 l 35 82 l 35 0 l 314 0 m 299 1032 l 200 1183 l 35 1183 l 208 1032 l 299 1032 z "},"Í":{"ha":353,"x_min":35,"x_max":351,"o":"m 314 0 l 314 82 l 267 82 l 267 865 l 314 865 l 314 949 l 35 949 l 35 865 l 82 865 l 82 82 l 35 82 l 35 0 l 314 0 m 351 1189 l 186 1189 l 88 1038 l 179 1038 l 351 1189 z "},"Î":{"ha":353,"x_min":24,"x_max":342,"o":"m 317 0 l 317 82 l 269 82 l 269 865 l 317 865 l 317 949 l 38 949 l 38 865 l 85 865 l 85 82 l 38 82 l 38 0 l 317 0 m 342 1038 l 249 1190 l 131 1190 l 24 1038 l 132 1038 l 185 1117 l 238 1038 l 342 1038 z "},"Ï":{"ha":353,"x_min":24,"x_max":338,"o":"m 322 0 l 322 82 l 275 82 l 275 865 l 322 865 l 322 949 l 43 949 l 43 865 l 90 865 l 90 82 l 43 82 l 43 0 l 322 0 m 338 1103 q 319 1148 338 1129 q 274 1167 300 1167 q 227 1148 246 1167 q 208 1103 208 1129 q 227 1056 208 1075 q 274 1038 246 1038 q 319 1056 300 1038 q 338 1103 338 1075 m 153 1103 q 134 1148 153 1129 q 89 1167 115 1167 q 42 1148 61 1167 q 24 1103 24 1129 q 42 1056 24 1075 q 89 1038 61 1038 q 134 1056 115 1038 q 153 1103 153 1075 z "},"Ð":{"ha":622,"x_min":35,"x_max":581,"o":"m 581 500 q 567 684 581 601 q 520 826 553 767 q 433 917 488 885 q 299 949 379 949 l 35 949 l 35 865 l 82 865 l 82 524 l 35 524 l 35 447 l 82 447 l 82 82 l 35 82 l 35 0 l 283 0 q 417 28 361 0 q 510 116 474 56 q 563 272 546 176 q 581 500 581 367 m 383 499 q 382 325 383 396 q 376 208 381 254 q 365 136 372 161 q 344 99 357 111 q 312 84 331 86 q 267 82 293 82 l 267 447 l 324 447 l 324 524 l 267 524 l 267 865 q 331 854 308 865 q 366 806 354 843 q 381 695 378 768 q 383 499 383 622 z "},"Ñ":{"ha":596,"x_min":35,"x_max":558,"o":"m 558 865 l 558 949 l 386 949 l 386 865 l 433 865 l 433 339 l 258 949 l 35 949 l 35 865 l 82 865 l 82 82 l 35 82 l 35 0 l 203 0 l 203 82 l 158 82 l 158 643 l 347 0 l 510 0 l 510 865 l 558 865 m 443 1164 l 394 1164 q 377 1143 383 1149 q 361 1138 371 1138 q 335 1142 351 1138 q 298 1151 318 1146 q 256 1161 278 1157 q 215 1165 233 1165 q 131 1134 167 1165 q 88 1051 96 1103 l 138 1051 q 175 1079 146 1079 q 201 1075 183 1079 q 241 1067 219 1071 q 283 1058 263 1063 q 317 1054 304 1054 q 400 1085 364 1054 q 443 1164 436 1115 z "},"Ò":{"ha":576,"x_min":32,"x_max":542,"o":"m 542 475 q 531 643 542 557 q 492 799 521 729 q 415 915 464 869 q 288 960 365 960 q 182 935 229 960 q 101 852 135 910 q 50 702 68 794 q 32 475 32 610 q 288 -11 32 -11 q 392 15 346 -11 q 472 98 439 40 q 524 249 506 156 q 542 475 542 342 m 344 201 q 332 96 344 125 q 288 67 319 67 q 242 96 254 67 q 229 201 229 125 l 229 746 q 242 853 229 824 q 288 882 254 882 q 332 853 319 882 q 344 746 344 824 l 344 201 m 346 1032 l 247 1183 l 82 1183 l 256 1032 l 346 1032 z "},"Ó":{"ha":576,"x_min":32,"x_max":542,"o":"m 542 475 q 531 643 542 557 q 492 799 521 729 q 415 915 464 869 q 288 960 365 960 q 182 935 229 960 q 101 852 135 910 q 50 702 68 794 q 32 475 32 610 q 288 -11 32 -11 q 392 15 346 -11 q 472 98 439 40 q 524 249 506 156 q 542 475 542 342 m 344 201 q 332 96 344 125 q 288 67 319 67 q 242 96 254 67 q 229 201 229 125 l 229 746 q 242 853 229 824 q 288 882 254 882 q 332 853 319 882 q 344 746 344 824 l 344 201 m 503 1193 l 338 1193 l 239 1042 l 331 1042 l 503 1193 z "},"Ô":{"ha":576,"x_min":32,"x_max":542,"o":"m 542 475 q 531 643 542 557 q 492 799 521 729 q 415 915 464 869 q 288 960 365 960 q 182 935 229 960 q 101 852 135 910 q 50 702 68 794 q 32 475 32 610 q 288 -11 32 -11 q 392 15 346 -11 q 472 98 439 40 q 524 249 506 156 q 542 475 542 342 m 344 201 q 332 96 344 125 q 288 67 319 67 q 242 96 254 67 q 229 201 229 125 l 229 746 q 242 853 229 824 q 288 882 254 882 q 332 853 319 882 q 344 746 344 824 l 344 201 m 451 1031 l 358 1183 l 240 1183 l 133 1031 l 242 1031 l 294 1110 l 347 1031 l 451 1031 z "},"Õ":{"ha":576,"x_min":32,"x_max":542,"o":"m 542 475 q 531 643 542 557 q 492 799 521 729 q 415 915 464 869 q 288 960 365 960 q 182 935 229 960 q 101 852 135 910 q 50 702 68 794 q 32 475 32 610 q 288 -11 32 -11 q 392 15 346 -11 q 472 98 439 40 q 524 249 506 156 q 542 475 542 342 m 344 201 q 332 96 344 125 q 288 67 319 67 q 242 96 254 67 q 229 201 229 125 l 229 746 q 242 853 229 824 q 288 882 254 882 q 332 853 319 882 q 344 746 344 824 l 344 201 m 475 1156 l 426 1156 q 409 1135 415 1140 q 393 1129 403 1129 q 367 1133 383 1129 q 330 1143 350 1138 q 288 1153 310 1149 q 247 1157 265 1157 q 163 1126 199 1157 q 119 1043 128 1094 l 169 1043 q 207 1071 178 1071 q 233 1067 215 1071 q 273 1058 251 1063 q 315 1050 294 1054 q 349 1046 336 1046 q 432 1076 396 1046 q 475 1156 468 1107 z "},"Ö":{"ha":576,"x_min":32,"x_max":542,"o":"m 542 475 q 531 643 542 557 q 492 799 521 729 q 415 915 464 869 q 288 960 365 960 q 182 935 229 960 q 101 852 135 910 q 50 702 68 794 q 32 475 32 610 q 288 -11 32 -11 q 392 15 346 -11 q 472 98 439 40 q 524 249 506 156 q 542 475 542 342 m 344 201 q 332 96 344 125 q 288 67 319 67 q 242 96 254 67 q 229 201 229 125 l 229 746 q 242 853 229 824 q 288 882 254 882 q 332 853 319 882 q 344 746 344 824 l 344 201 m 447 1101 q 428 1147 447 1128 q 383 1165 410 1165 q 337 1147 356 1165 q 318 1101 318 1128 q 337 1055 318 1074 q 383 1036 356 1036 q 428 1055 410 1036 q 447 1101 447 1074 m 263 1101 q 244 1147 263 1128 q 199 1165 225 1165 q 152 1147 171 1165 q 133 1101 133 1128 q 152 1055 133 1074 q 199 1036 171 1036 q 244 1055 225 1036 q 263 1101 263 1074 z "},"×":{"ha":574,"x_min":86,"x_max":488,"o":"m 488 336 l 361 463 l 486 588 l 413 663 l 288 536 l 160 664 l 86 589 l 213 463 l 88 338 l 161 263 l 288 389 l 414 261 l 488 336 z "},"Ø":{"ha":576,"x_min":32,"x_max":542,"o":"m 542 475 q 509 762 542 653 q 410 921 476 871 l 419 967 l 367 985 l 358 949 q 322 958 338 956 q 288 960 307 960 q 182 933 229 960 q 101 849 135 907 q 50 698 68 790 q 32 475 32 606 q 65 187 32 296 q 164 26 97 78 l 151 -37 l 207 -37 l 215 1 q 252 -8 236 -6 q 288 -11 268 -11 q 392 15 346 -11 q 472 100 439 42 q 524 251 506 158 q 542 475 542 343 m 336 842 l 229 338 l 229 746 q 242 853 229 824 q 288 882 254 882 q 336 842 319 882 m 344 201 q 332 96 344 125 q 288 67 319 67 q 238 107 254 67 l 344 611 l 344 201 z "},"Ù":{"ha":686,"x_min":18,"x_max":560,"o":"m 560 865 l 560 949 l 375 949 l 375 865 l 433 865 l 433 289 q 430 185 433 225 q 417 124 426 146 q 391 94 408 101 q 346 86 374 86 q 298 94 317 86 q 269 124 279 103 q 254 184 258 146 q 250 281 250 222 l 250 865 l 307 865 l 307 949 l 18 949 l 18 865 l 65 865 l 65 281 q 122 59 65 129 q 301 -11 179 -11 q 400 5 360 -11 q 466 57 440 21 q 503 151 492 93 q 514 294 514 210 l 514 865 l 560 865 m 385 1040 l 286 1192 l 121 1192 l 294 1040 l 385 1040 z "},"Ú":{"ha":596,"x_min":26,"x_max":568,"o":"m 568 865 l 568 949 l 383 949 l 383 865 l 442 865 l 442 289 q 438 185 442 225 q 426 124 435 146 q 399 94 417 101 q 354 86 382 86 q 306 94 325 86 q 277 124 288 103 q 263 184 267 146 q 258 281 258 222 l 258 865 l 315 865 l 315 949 l 26 949 l 26 865 l 74 865 l 74 281 q 131 59 74 129 q 310 -11 188 -11 q 408 5 368 -11 q 474 57 449 21 q 511 151 500 93 q 522 294 522 210 l 522 865 l 568 865 m 525 1182 l 360 1182 l 261 1031 l 353 1031 l 525 1182 z "},"Û":{"ha":596,"x_min":26,"x_max":568,"o":"m 568 865 l 568 949 l 383 949 l 383 865 l 442 865 l 442 289 q 438 185 442 225 q 426 124 435 146 q 399 94 417 101 q 354 86 382 86 q 306 94 325 86 q 277 124 288 103 q 263 184 267 146 q 258 281 258 222 l 258 865 l 315 865 l 315 949 l 26 949 l 26 865 l 74 865 l 74 281 q 131 59 74 129 q 310 -11 188 -11 q 408 5 368 -11 q 474 57 449 21 q 511 151 500 93 q 522 294 522 210 l 522 865 l 568 865 m 493 1029 l 400 1182 l 282 1182 l 175 1029 l 283 1029 l 336 1108 l 389 1029 l 493 1029 z "},"Ü":{"ha":596,"x_min":26,"x_max":568,"o":"m 568 865 l 568 949 l 383 949 l 383 865 l 442 865 l 442 289 q 438 185 442 225 q 426 124 435 146 q 399 94 417 101 q 354 86 382 86 q 306 94 325 86 q 277 124 288 103 q 263 184 267 146 q 258 281 258 222 l 258 865 l 315 865 l 315 949 l 26 949 l 26 865 l 74 865 l 74 281 q 131 59 74 129 q 310 -11 188 -11 q 408 5 368 -11 q 474 57 449 21 q 511 151 500 93 q 522 294 522 210 l 522 865 l 568 865 m 468 1107 q 449 1152 468 1133 q 404 1171 431 1171 q 358 1152 376 1171 q 339 1107 339 1133 q 358 1060 339 1079 q 404 1042 376 1042 q 449 1060 431 1042 q 468 1107 468 1079 m 283 1107 q 265 1152 283 1133 q 219 1171 246 1171 q 173 1152 192 1171 q 154 1107 154 1133 q 173 1060 154 1079 q 219 1042 192 1042 q 265 1060 246 1042 q 283 1107 283 1079 z "},"Ý":{"ha":553,"x_min":10,"x_max":551,"o":"m 542 865 l 542 949 l 374 949 l 374 865 l 421 865 l 335 513 l 251 865 l 296 865 l 296 949 l 10 949 l 10 865 l 50 865 l 193 350 l 193 82 l 142 82 l 142 0 l 431 0 l 431 82 l 374 82 l 374 371 l 499 865 l 542 865 m 551 1188 l 386 1188 l 288 1036 l 379 1036 l 551 1188 z "},"Þ":{"ha":588,"x_min":35,"x_max":557,"o":"m 557 524 q 543 647 557 596 q 497 728 529 697 q 415 774 465 760 q 292 788 364 788 l 267 788 l 267 865 l 314 865 l 314 949 l 35 949 l 35 865 l 82 865 l 82 82 l 35 82 l 35 0 l 326 0 l 326 82 l 267 82 l 267 243 l 313 243 q 429 259 382 243 q 505 310 476 275 q 545 397 533 344 q 557 524 557 450 m 369 446 q 365 380 369 404 q 350 342 361 356 q 319 325 339 329 q 267 321 299 321 l 267 704 q 349 683 328 704 q 369 603 369 663 l 369 446 z "},"ß":{"ha":544,"x_min":26,"x_max":508,"o":"m 508 339 q 502 445 508 393 q 482 538 496 497 q 446 606 468 579 q 392 638 424 633 q 428 667 414 653 q 452 697 443 682 q 465 728 461 711 q 468 768 468 746 q 453 843 468 808 q 410 903 438 878 q 345 942 383 928 q 263 956 307 956 q 186 944 221 956 q 125 901 151 932 q 84 817 99 869 q 69 681 69 764 l 26 681 l 26 601 l 69 601 l 69 75 l 26 75 l 26 0 l 240 0 l 240 775 q 242 834 240 813 q 247 867 243 856 q 259 882 251 879 q 279 885 267 885 q 306 870 299 885 q 314 817 314 856 l 314 746 q 304 690 314 700 q 264 679 294 679 l 264 601 q 299 599 286 601 q 317 588 311 596 q 326 563 324 579 q 328 517 328 546 l 328 160 q 321 90 328 110 q 296 71 314 71 q 272 83 279 71 q 264 94 264 94 l 264 0 q 276 -6 265 -1 q 303 -17 286 -11 q 336 -22 321 -22 q 413 7 381 -22 q 467 86 446 36 q 498 201 488 136 q 508 339 508 267 z "},"à":{"ha":550,"x_min":32,"x_max":526,"o":"m 526 43 l 500 114 q 464 85 479 85 q 449 111 449 85 l 449 483 q 254 703 449 703 q 100 660 157 703 q 43 547 43 618 q 70 474 43 504 q 135 444 97 444 q 196 472 171 444 q 221 535 221 499 q 212 575 221 558 q 176 614 203 592 q 197 628 188 625 q 219 632 206 632 q 268 613 254 632 q 282 544 282 593 l 282 388 l 215 388 q 78 337 125 388 q 32 186 32 286 q 76 40 32 93 q 194 -14 119 -14 q 256 -1 233 -14 q 303 43 279 11 q 354 -2 332 10 q 410 -14 376 -14 q 471 -1 446 -14 q 526 43 496 11 m 282 167 q 243 79 282 79 q 196 190 196 79 q 199 256 196 231 q 209 294 201 281 q 231 313 217 308 q 267 318 244 318 l 282 318 l 282 167 m 326 753 l 228 904 l 63 904 l 236 753 l 326 753 z "},"á":{"ha":550,"x_min":32,"x_max":526,"o":"m 526 43 l 500 114 q 464 85 479 85 q 449 111 449 85 l 449 483 q 254 703 449 703 q 100 660 157 703 q 43 547 43 618 q 70 474 43 504 q 135 444 97 444 q 196 472 171 444 q 221 535 221 499 q 212 575 221 558 q 176 614 203 592 q 197 628 188 625 q 219 632 206 632 q 268 613 254 632 q 282 544 282 593 l 282 388 l 215 388 q 78 337 125 388 q 32 186 32 286 q 76 40 32 93 q 194 -14 119 -14 q 256 -1 233 -14 q 303 43 279 11 q 354 -2 332 10 q 410 -14 376 -14 q 471 -1 446 -14 q 526 43 496 11 m 282 167 q 243 79 282 79 q 196 190 196 79 q 199 256 196 231 q 209 294 201 281 q 231 313 217 308 q 267 318 244 318 l 282 318 l 282 167 m 443 900 l 278 900 l 179 749 l 271 749 l 443 900 z "},"â":{"ha":550,"x_min":32,"x_max":526,"o":"m 526 43 l 500 114 q 464 85 479 85 q 449 111 449 85 l 449 483 q 254 703 449 703 q 100 660 157 703 q 43 547 43 618 q 70 474 43 504 q 135 444 97 444 q 196 472 171 444 q 221 535 221 499 q 212 575 221 558 q 176 614 203 592 q 197 628 188 625 q 219 632 206 632 q 268 613 254 632 q 282 544 282 593 l 282 388 l 215 388 q 78 337 125 388 q 32 186 32 286 q 76 40 32 93 q 194 -14 119 -14 q 256 -1 233 -14 q 303 43 279 11 q 354 -2 332 10 q 410 -14 376 -14 q 471 -1 446 -14 q 526 43 496 11 m 282 167 q 243 79 282 79 q 196 190 196 79 q 199 256 196 231 q 209 294 201 281 q 231 313 217 308 q 267 318 244 318 l 282 318 l 282 167 m 435 754 l 342 907 l 224 907 l 117 754 l 225 754 l 278 833 l 331 754 l 435 754 z "},"ã":{"ha":550,"x_min":32,"x_max":526,"o":"m 526 43 l 500 114 q 464 85 479 85 q 449 111 449 85 l 449 483 q 254 703 449 703 q 100 660 157 703 q 43 547 43 618 q 70 474 43 504 q 135 444 97 444 q 196 472 171 444 q 221 535 221 499 q 212 575 221 558 q 176 614 203 592 q 197 628 188 625 q 219 632 206 632 q 268 613 254 632 q 282 544 282 593 l 282 388 l 215 388 q 78 337 125 388 q 32 186 32 286 q 76 40 32 93 q 194 -14 119 -14 q 256 -1 233 -14 q 303 43 279 11 q 354 -2 332 10 q 410 -14 376 -14 q 471 -1 446 -14 q 526 43 496 11 m 282 167 q 243 79 282 79 q 196 190 196 79 q 199 256 196 231 q 209 294 201 281 q 231 313 217 308 q 267 318 244 318 l 282 318 l 282 167 m 433 872 l 385 872 q 367 851 374 857 q 351 846 361 846 q 325 850 342 846 q 288 860 308 854 q 246 869 268 865 q 206 874 224 874 q 122 842 157 874 q 78 760 86 811 l 128 760 q 165 788 136 788 q 192 783 174 788 q 231 775 210 779 q 274 767 253 771 q 307 763 294 763 q 390 793 354 763 q 433 872 426 824 z "},"ä":{"ha":550,"x_min":32,"x_max":526,"o":"m 526 43 l 500 114 q 464 85 479 85 q 449 111 449 85 l 449 483 q 254 703 449 703 q 100 660 157 703 q 43 547 43 618 q 70 474 43 504 q 135 444 97 444 q 196 472 171 444 q 221 535 221 499 q 212 575 221 558 q 176 614 203 592 q 197 628 188 625 q 219 632 206 632 q 268 613 254 632 q 282 544 282 593 l 282 388 l 215 388 q 78 337 125 388 q 32 186 32 286 q 76 40 32 93 q 194 -14 119 -14 q 256 -1 233 -14 q 303 43 279 11 q 354 -2 332 10 q 410 -14 376 -14 q 471 -1 446 -14 q 526 43 496 11 m 282 167 q 243 79 282 79 q 196 190 196 79 q 199 256 196 231 q 209 294 201 281 q 231 313 217 308 q 267 318 244 318 l 282 318 l 282 167 m 399 818 q 380 863 399 844 q 335 882 361 882 q 288 863 307 882 q 269 818 269 844 q 288 772 269 790 q 335 753 307 753 q 380 772 361 753 q 399 818 399 790 m 214 818 q 195 863 214 844 q 150 882 176 882 q 103 863 122 882 q 85 818 85 844 q 103 772 85 790 q 150 753 122 753 q 195 772 176 753 q 214 818 214 790 z "},"å":{"ha":550,"x_min":32,"x_max":526,"o":"m 526 43 l 500 114 q 464 85 479 85 q 449 111 449 85 l 449 483 q 254 703 449 703 q 100 660 157 703 q 43 547 43 618 q 70 474 43 504 q 135 444 97 444 q 196 472 171 444 q 221 535 221 499 q 212 575 221 558 q 176 614 203 592 q 197 628 188 625 q 219 632 206 632 q 268 613 254 632 q 282 544 282 593 l 282 388 l 215 388 q 78 337 125 388 q 32 186 32 286 q 76 40 32 93 q 194 -14 119 -14 q 256 -1 233 -14 q 303 43 279 11 q 354 -2 332 10 q 410 -14 376 -14 q 471 -1 446 -14 q 526 43 496 11 m 282 167 q 243 79 282 79 q 196 190 196 79 q 199 256 196 231 q 209 294 201 281 q 231 313 217 308 q 267 318 244 318 l 282 318 l 282 167 m 349 840 q 340 881 349 861 q 317 915 332 900 q 285 938 303 929 q 246 947 267 947 q 169 916 200 947 q 139 839 139 885 q 170 767 139 796 q 246 738 201 738 q 319 767 289 738 q 349 840 349 797 m 293 839 q 279 806 293 818 q 243 793 265 793 q 208 806 221 793 q 194 842 194 819 q 208 878 194 864 q 242 892 221 892 q 277 876 261 892 q 293 839 293 860 z "},"æ":{"ha":750,"x_min":32,"x_max":713,"o":"m 713 214 l 639 225 q 599 116 625 150 q 531 82 574 82 q 467 119 485 82 q 449 247 449 156 q 449 278 449 258 q 451 310 450 297 q 451 325 451 324 l 706 325 q 706 341 706 325 q 707 364 707 357 q 651 615 707 528 q 490 703 596 703 q 431 694 454 703 q 376 667 407 686 q 322 694 349 686 q 254 703 294 703 q 100 660 157 703 q 43 547 43 618 q 70 472 43 503 q 135 442 97 442 q 196 469 171 442 q 221 536 221 497 q 212 576 221 560 q 176 614 203 592 q 197 628 188 625 q 219 632 206 632 q 268 613 254 632 q 282 544 282 593 l 282 388 l 215 388 q 78 337 125 388 q 32 188 32 286 q 76 41 32 94 q 194 -12 119 -12 q 247 -6 225 -12 q 285 10 268 0 q 317 33 301 19 q 350 61 332 46 q 497 -12 410 -12 q 643 48 585 -12 q 713 214 701 108 m 547 393 l 451 393 l 451 501 q 463 600 451 569 q 503 631 475 631 q 547 519 547 631 l 547 393 m 282 167 q 243 81 282 81 q 196 192 196 81 q 199 256 196 231 q 209 294 201 281 q 231 313 217 308 q 267 318 244 318 l 282 318 l 282 167 z "},"ç":{"ha":479,"x_min":32,"x_max":443,"o":"m 443 221 l 368 235 q 340 120 358 151 q 282 89 322 89 q 247 100 261 89 q 224 138 232 111 q 212 210 215 165 q 208 324 208 256 q 212 471 208 413 q 224 564 215 529 q 246 613 232 599 q 281 626 260 626 q 332 581 319 626 q 258 496 258 576 q 285 428 258 456 q 349 401 313 401 q 417 433 392 401 q 442 517 442 464 q 428 590 442 556 q 389 649 414 624 q 331 688 364 674 q 258 701 297 701 q 91 610 150 701 q 32 350 32 518 q 76 97 32 189 q 203 -11 119 4 l 203 -94 q 210 -94 203 -94 q 225 -93 218 -93 q 276 -144 276 -93 q 247 -182 276 -182 q 215 -146 219 -182 l 147 -146 q 243 -232 151 -232 q 319 -206 292 -232 q 347 -132 347 -179 q 261 -50 347 -50 l 261 -12 q 382 50 336 -6 q 443 221 428 106 z "},"è":{"ha":507,"x_min":32,"x_max":471,"o":"m 471 214 l 396 225 q 358 116 383 150 q 289 82 332 82 q 225 118 243 82 q 207 247 207 154 q 208 278 207 258 q 208 310 208 297 q 208 325 208 324 l 464 325 q 465 342 464 325 q 465 364 465 358 q 409 615 465 528 q 247 703 353 703 q 88 613 143 703 q 32 349 32 522 q 92 83 32 179 q 256 -12 151 -12 q 401 47 343 -12 q 471 214 460 107 m 306 393 l 208 393 l 208 501 q 221 600 208 569 q 261 631 233 631 q 306 519 306 631 l 306 393 m 325 751 l 226 903 l 61 903 l 235 751 l 325 751 z "},"é":{"ha":507,"x_min":32,"x_max":471,"o":"m 471 214 l 396 225 q 358 116 383 150 q 289 82 332 82 q 225 118 243 82 q 207 247 207 154 q 208 278 207 258 q 208 310 208 297 q 208 325 208 324 l 464 325 q 465 342 464 325 q 465 364 465 358 q 409 615 465 528 q 247 703 353 703 q 88 613 143 703 q 32 349 32 522 q 92 83 32 179 q 256 -12 151 -12 q 401 47 343 -12 q 471 214 460 107 m 306 393 l 208 393 l 208 501 q 221 600 208 569 q 261 631 233 631 q 306 519 306 631 l 306 393 m 465 896 l 300 896 l 201 744 l 293 744 l 465 896 z "},"ê":{"ha":507,"x_min":32,"x_max":471,"o":"m 471 214 l 396 225 q 358 116 383 150 q 289 82 332 82 q 225 118 243 82 q 207 247 207 154 q 208 278 207 258 q 208 310 208 297 q 208 325 208 324 l 464 325 q 465 342 464 325 q 465 364 465 358 q 409 615 465 528 q 247 703 353 703 q 88 613 143 703 q 32 349 32 522 q 92 83 32 179 q 256 -12 151 -12 q 401 47 343 -12 q 471 214 460 107 m 306 393 l 208 393 l 208 501 q 221 600 208 569 q 261 631 233 631 q 306 519 306 631 l 306 393 m 408 735 l 315 888 l 197 888 l 90 735 l 199 735 l 251 814 l 304 735 l 408 735 z "},"ë":{"ha":507,"x_min":32,"x_max":471,"o":"m 471 214 l 396 225 q 358 116 383 150 q 289 82 332 82 q 225 118 243 82 q 207 247 207 154 q 208 278 207 258 q 208 310 208 297 q 208 325 208 324 l 464 325 q 465 342 464 325 q 465 364 465 358 q 409 615 465 528 q 247 703 353 703 q 88 613 143 703 q 32 349 32 522 q 92 83 32 179 q 256 -12 151 -12 q 401 47 343 -12 q 471 214 460 107 m 306 393 l 208 393 l 208 501 q 221 600 208 569 q 261 631 233 631 q 306 519 306 631 l 306 393 m 406 818 q 387 863 406 844 q 342 882 368 882 q 295 863 314 882 q 276 818 276 844 q 295 772 276 790 q 342 753 314 753 q 387 772 368 753 q 406 818 406 790 m 221 818 q 202 863 221 844 q 157 882 183 882 q 110 863 129 882 q 92 818 92 844 q 110 772 92 790 q 157 753 129 753 q 202 772 183 753 q 221 818 221 790 z "},"ì":{"ha":311,"x_min":-40,"x_max":288,"o":"m 288 0 l 288 75 l 246 75 l 246 686 l 32 686 l 32 611 l 75 611 l 75 75 l 32 75 l 32 0 l 288 0 m 224 747 l 125 899 l -40 899 l 133 747 l 224 747 z "},"í":{"ha":311,"x_min":28,"x_max":351,"o":"m 283 0 l 283 75 l 242 75 l 242 686 l 28 686 l 28 611 l 71 611 l 71 75 l 28 75 l 28 0 l 283 0 m 351 894 l 186 894 l 88 743 l 179 743 l 351 894 z "},"î":{"ha":311,"x_min":19,"x_max":285,"o":"m 285 0 l 285 75 l 243 75 l 243 686 l 29 686 l 29 611 l 72 611 l 72 75 l 29 75 l 29 0 l 285 0 m 283 749 l 207 876 l 108 876 l 19 749 l 110 749 l 153 815 l 197 749 l 283 749 z "},"ï":{"ha":311,"x_min":-8,"x_max":306,"o":"m 283 0 l 283 75 l 242 75 l 242 686 l 28 686 l 28 611 l 71 611 l 71 75 l 28 75 l 28 0 l 283 0 m 306 813 q 287 858 306 839 q 242 876 268 876 q 195 858 214 876 q 176 813 176 839 q 195 766 176 785 q 242 747 214 747 q 287 766 268 747 q 306 813 306 785 m 121 813 q 102 858 121 839 q 57 876 83 876 q 10 858 29 876 q -8 813 -8 839 q 10 766 -8 785 q 57 747 29 747 q 102 766 83 747 q 121 813 121 785 z "},"ð":{"ha":533,"x_min":32,"x_max":496,"o":"m 496 344 q 456 638 496 504 q 331 854 415 772 l 424 925 l 392 967 l 292 892 q 220 931 256 915 q 132 958 185 946 l 100 904 q 168 876 140 890 q 225 842 196 863 l 132 772 l 163 728 l 260 801 q 285 776 275 788 q 301 753 294 765 q 313 727 308 742 q 325 692 318 713 q 308 697 325 692 q 264 701 290 701 q 91 611 150 701 q 32 343 32 521 q 91 76 32 167 q 264 -14 150 -14 q 438 76 379 -14 q 496 344 496 167 m 315 178 q 313 111 315 136 q 303 73 310 86 q 288 56 297 60 q 264 51 278 51 q 242 56 251 51 q 226 75 232 61 q 217 113 219 89 q 214 178 214 138 l 214 514 q 225 611 214 588 q 264 635 236 635 q 303 609 292 635 q 315 514 315 583 l 315 178 z "},"ñ":{"ha":561,"x_min":26,"x_max":539,"o":"m 539 0 l 539 75 l 496 75 l 496 515 q 481 617 496 579 q 445 673 467 654 q 400 697 424 692 q 358 701 376 701 q 301 688 326 701 q 240 642 276 674 l 240 686 l 26 686 l 26 611 l 69 611 l 69 75 l 26 75 l 26 0 l 282 0 l 282 75 l 240 75 l 240 476 q 251 565 240 539 q 292 592 263 592 q 319 572 313 592 q 325 489 325 551 l 325 0 l 539 0 m 461 865 l 413 865 q 395 844 401 850 q 379 839 389 839 q 353 843 369 839 q 316 853 336 847 q 274 863 296 858 q 233 867 251 867 q 149 835 185 867 q 106 753 114 804 l 156 753 q 193 781 164 781 q 219 776 201 781 q 259 768 238 772 q 301 760 281 764 q 335 756 322 756 q 418 786 382 756 q 461 865 454 817 z "},"ò":{"ha":533,"x_min":32,"x_max":496,"o":"m 496 344 q 438 612 496 522 q 264 701 379 701 q 91 611 150 701 q 32 344 32 521 q 91 76 32 167 q 264 -14 150 -14 q 438 76 379 -14 q 496 344 496 167 m 315 164 q 313 108 315 129 q 303 74 310 86 q 288 56 297 61 q 264 51 278 51 q 226 74 238 51 q 214 164 214 96 l 214 536 q 225 613 214 590 q 264 635 236 635 q 303 613 292 635 q 315 522 315 590 l 315 164 m 339 758 l 240 910 l 75 910 l 249 758 l 339 758 z "},"ó":{"ha":533,"x_min":32,"x_max":496,"o":"m 496 344 q 438 612 496 522 q 264 701 379 701 q 91 611 150 701 q 32 344 32 521 q 91 76 32 167 q 264 -14 150 -14 q 438 76 379 -14 q 496 344 496 167 m 315 164 q 313 108 315 129 q 303 74 310 86 q 288 56 297 61 q 264 51 278 51 q 226 74 238 51 q 214 164 214 96 l 214 536 q 225 613 214 590 q 264 635 236 635 q 303 613 292 635 q 315 522 315 590 l 315 164 m 489 904 l 324 904 l 225 753 l 317 753 l 489 904 z "},"ô":{"ha":533,"x_min":32,"x_max":496,"o":"m 496 344 q 438 612 496 522 q 264 701 379 701 q 91 611 150 701 q 32 344 32 521 q 91 76 32 167 q 264 -14 150 -14 q 438 76 379 -14 q 496 344 496 167 m 315 164 q 313 108 315 129 q 303 74 310 86 q 288 56 297 61 q 264 51 278 51 q 226 74 238 51 q 214 164 214 96 l 214 536 q 225 613 214 590 q 264 635 236 635 q 303 613 292 635 q 315 522 315 590 l 315 164 m 421 744 l 328 897 l 210 897 l 103 744 l 211 744 l 264 824 l 317 744 l 421 744 z "},"õ":{"ha":533,"x_min":32,"x_max":496,"o":"m 496 344 q 438 612 496 522 q 264 701 379 701 q 91 611 150 701 q 32 344 32 521 q 91 76 32 167 q 264 -14 150 -14 q 438 76 379 -14 q 496 344 496 167 m 315 164 q 313 108 315 129 q 303 74 310 86 q 288 56 297 61 q 264 51 278 51 q 226 74 238 51 q 214 164 214 96 l 214 536 q 225 613 214 590 q 264 635 236 635 q 303 613 292 635 q 315 522 315 590 l 315 164 m 447 863 l 399 863 q 381 842 388 847 q 365 836 375 836 q 339 840 356 836 q 302 850 322 844 q 260 860 282 856 q 219 864 238 864 q 135 833 171 864 q 92 750 100 801 l 142 750 q 179 778 150 778 q 206 774 188 778 q 245 765 224 769 q 288 757 267 761 q 321 753 308 753 q 404 783 368 753 q 447 863 440 814 z "},"ö":{"ha":533,"x_min":32,"x_max":496,"o":"m 496 344 q 438 612 496 522 q 264 701 379 701 q 91 611 150 701 q 32 344 32 521 q 91 76 32 167 q 264 -14 150 -14 q 438 76 379 -14 q 496 344 496 167 m 315 164 q 313 108 315 129 q 303 74 310 86 q 288 56 297 61 q 264 51 278 51 q 226 74 238 51 q 214 164 214 96 l 214 536 q 225 613 214 590 q 264 635 236 635 q 303 613 292 635 q 315 522 315 590 l 315 164 m 421 815 q 402 860 421 842 q 357 879 383 879 q 310 860 329 879 q 292 815 292 842 q 310 769 292 788 q 357 750 329 750 q 402 769 383 750 q 421 815 421 788 m 236 815 q 217 860 236 842 q 172 879 199 879 q 126 860 144 879 q 107 815 107 842 q 126 769 107 788 q 172 750 144 750 q 217 769 199 750 q 236 815 236 788 z "},"÷":{"ha":574,"x_min":60,"x_max":514,"o":"m 375 663 q 349 726 375 700 q 285 753 322 753 q 221 726 247 753 q 194 663 194 700 q 221 599 194 625 q 285 572 247 572 q 349 599 322 572 q 375 663 375 625 m 514 413 l 514 514 l 60 514 l 60 413 l 514 413 m 375 264 q 349 328 375 301 q 285 354 322 354 q 221 328 247 354 q 194 264 194 301 q 221 200 194 226 q 285 174 247 174 q 349 200 322 174 q 375 264 375 226 z "},"ø":{"ha":533,"x_min":32,"x_max":496,"o":"m 496 344 q 394 658 496 575 l 411 711 l 354 711 l 347 686 q 306 697 324 693 q 264 701 288 701 q 91 611 150 701 q 32 343 32 521 q 143 21 32 103 l 129 -24 l 186 -24 l 192 -3 q 230 -12 215 -10 q 264 -14 244 -14 q 438 76 379 -14 q 496 344 496 167 m 314 574 l 214 250 l 214 536 q 225 613 214 590 q 264 635 236 635 q 314 574 310 635 m 315 150 q 303 74 315 97 q 264 51 292 51 q 219 85 232 51 l 315 400 l 315 150 z "},"ù":{"ha":561,"x_min":19,"x_max":532,"o":"m 532 0 l 532 75 l 489 75 l 489 686 l 276 686 l 276 611 l 318 611 l 318 210 q 306 123 318 150 q 267 96 294 96 q 240 111 247 96 q 233 169 233 126 l 233 686 l 19 686 l 19 611 l 63 611 l 63 169 q 74 80 63 115 q 105 24 86 44 q 148 -6 124 3 q 196 -14 172 -14 q 258 1 232 -14 q 318 56 283 15 l 321 0 l 532 0 m 340 757 l 242 908 l 76 908 l 250 757 l 340 757 z "},"ú":{"ha":561,"x_min":19,"x_max":532,"o":"m 532 0 l 532 75 l 489 75 l 489 686 l 276 686 l 276 611 l 318 611 l 318 210 q 306 123 318 150 q 267 96 294 96 q 240 111 247 96 q 233 169 233 126 l 233 686 l 19 686 l 19 611 l 63 611 l 63 169 q 74 80 63 115 q 105 24 86 44 q 148 -6 124 3 q 196 -14 172 -14 q 258 1 232 -14 q 318 56 283 15 l 321 0 l 532 0 m 464 904 l 299 904 l 200 753 l 292 753 l 464 904 z "},"û":{"ha":561,"x_min":19,"x_max":532,"o":"m 532 0 l 532 75 l 489 75 l 489 686 l 276 686 l 276 611 l 318 611 l 318 210 q 306 123 318 150 q 267 96 294 96 q 240 111 247 96 q 233 169 233 126 l 233 686 l 19 686 l 19 611 l 63 611 l 63 169 q 74 80 63 115 q 105 24 86 44 q 148 -6 124 3 q 196 -14 172 -14 q 258 1 232 -14 q 318 56 283 15 l 321 0 l 532 0 m 424 743 l 331 896 l 213 896 l 106 743 l 214 743 l 267 822 l 319 743 l 424 743 z "},"ü":{"ha":561,"x_min":19,"x_max":532,"o":"m 532 0 l 532 75 l 489 75 l 489 686 l 276 686 l 276 611 l 318 611 l 318 210 q 306 123 318 150 q 267 96 294 96 q 240 111 247 96 q 233 169 233 126 l 233 686 l 19 686 l 19 611 l 63 611 l 63 169 q 74 80 63 115 q 105 24 86 44 q 148 -6 124 3 q 196 -14 172 -14 q 258 1 232 -14 q 318 56 283 15 l 321 0 l 532 0 m 414 815 q 395 860 414 842 q 350 879 376 879 q 303 860 322 879 q 285 815 285 842 q 303 769 285 788 q 350 750 322 750 q 395 769 376 750 q 414 815 414 788 m 229 815 q 210 860 229 842 q 165 879 192 879 q 119 860 138 879 q 100 815 100 842 q 119 769 100 788 q 165 750 138 750 q 210 769 192 750 q 229 815 229 788 z "},"ý":{"ha":489,"x_min":10,"x_max":496,"o":"m 478 611 l 478 686 l 319 686 l 319 611 l 358 611 l 299 350 l 238 611 l 272 611 l 272 686 l 10 686 l 10 611 l 50 611 l 217 0 l 189 -94 q 125 -8 189 -8 q 64 -38 88 -8 q 40 -117 40 -68 q 68 -190 40 -161 q 138 -218 96 -218 q 224 -174 190 -218 q 282 -26 257 -131 l 436 611 l 478 611 m 496 908 l 331 908 l 232 757 l 324 757 l 496 908 z "},"þ":{"ha":546,"x_min":26,"x_max":511,"o":"m 511 353 q 465 614 511 525 q 328 703 418 703 q 277 690 297 703 q 238 646 257 678 l 238 949 l 26 949 l 26 872 l 69 872 l 69 -133 l 26 -133 l 26 -208 l 286 -208 l 286 -133 l 240 -133 l 240 28 q 295 -5 272 4 q 346 -14 318 -14 q 414 12 383 -14 q 466 85 444 38 q 499 201 488 133 q 511 353 511 269 m 347 375 q 344 219 347 278 q 333 129 340 161 q 316 87 326 97 q 292 76 306 76 q 265 86 275 76 q 249 124 254 96 q 242 206 244 153 q 240 344 240 258 q 242 481 240 429 q 250 560 244 532 q 266 597 256 588 q 293 606 276 606 q 335 554 324 606 q 347 375 347 503 z "},"ÿ":{"ha":489,"x_min":10,"x_max":478,"o":"m 478 611 l 478 686 l 319 686 l 319 611 l 358 611 l 299 350 l 238 611 l 272 611 l 272 686 l 10 686 l 10 611 l 50 611 l 217 0 l 189 -94 q 125 -8 189 -8 q 64 -38 88 -8 q 40 -117 40 -68 q 68 -190 40 -161 q 138 -218 96 -218 q 224 -174 190 -218 q 282 -26 257 -131 l 436 611 l 478 611 m 428 818 q 409 863 428 844 q 364 882 390 882 q 317 863 336 882 q 299 818 299 844 q 317 772 299 790 q 364 753 336 753 q 409 772 390 753 q 428 818 428 790 m 243 818 q 224 863 243 844 q 179 882 206 882 q 133 863 151 882 q 114 818 114 844 q 133 772 114 790 q 179 753 151 753 q 224 772 206 753 q 243 818 243 790 z "},"":{"ha":583,"x_min":75,"x_max":506,"o":"m 506 422 l 506 526 l 75 526 l 75 422 l 506 422 z "},"":{"ha":694,"x_min":0,"x_max":0,"o":""}}}
